<svg width="40" height="40" viewBox="0 0 40 40" fill="none" xmlns="http://www.w3.org/2000/svg">
<g clip-path="url(#clip0_148_195)">
<mask id="mask0_148_195" style="mask-type:luminance" maskUnits="userSpaceOnUse" x="0" y="0" width="40" height="40">
<path d="M20 40C31.0457 40 40 31.0457 40 20C40 8.9543 31.0457 0 20 0C8.9543 0 0 8.9543 0 20C0 31.0457 8.9543 40 20 40Z" fill="white"/>
</mask>
<g mask="url(#mask0_148_195)">
<path d="M50.48 -1.34H-10.48V41.33H50.48V-1.34Z" fill="#0A9B39"/>
<path d="M1.91003 20L20 31.55L38.09 20L20 8.45001L1.91003 20Z" fill="#FEDF0D"/>
<path d="M20 27.63C24.2139 27.63 27.63 24.2139 27.63 20C27.63 15.7861 24.2139 12.37 20 12.37C15.7861 12.37 12.37 15.7861 12.37 20C12.37 24.2139 15.7861 27.63 20 27.63Z" fill="#243468"/>
<mask id="mask1_148_195" style="mask-type:luminance" maskUnits="userSpaceOnUse" x="12" y="12" width="16" height="16">
<path d="M20 27.63C24.2139 27.63 27.63 24.2139 27.63 20C27.63 15.7861 24.2139 12.37 20 12.37C15.7861 12.37 12.37 15.7861 12.37 20C12.37 24.2139 15.7861 27.63 20 27.63Z" fill="white"/>
</mask>
<g mask="url(#mask1_148_195)">
<path d="M-2.89001 35.26C-2.89001 30.3455 -0.937752 25.6323 2.5373 22.1573C6.01235 18.6822 10.7255 16.73 15.64 16.73C20.5544 16.73 25.2676 18.6822 28.7427 22.1573C32.2177 25.6323 34.17 30.3455 34.17 35.26H33.08C33.08 30.6346 31.2426 26.1987 27.9719 22.928C24.7013 19.6574 20.2654 17.82 15.64 17.82C11.0146 17.82 6.57868 19.6574 3.30804 22.928C0.0374091 26.1987 -1.80001 30.6346 -1.80001 35.26H-2.89001Z" fill="white"/>
</g>
<path fill-rule="evenodd" clip-rule="evenodd" d="M13.49 17.77C13.5855 17.7594 13.6729 17.7113 13.7329 17.6363C13.7929 17.5613 13.8207 17.4655 13.81 17.37C13.7994 17.2745 13.7513 17.1872 13.6763 17.1272C13.6013 17.0672 13.5055 17.0394 13.41 17.05C13.3628 17.0553 13.317 17.0698 13.2753 17.0927C13.2337 17.1157 13.1969 17.1466 13.1672 17.1837C13.1375 17.2209 13.1154 17.2635 13.1021 17.3092C13.0889 17.3549 13.0848 17.4027 13.09 17.45C13.0953 17.4973 13.1098 17.5431 13.1328 17.5847C13.1557 17.6264 13.1866 17.6631 13.2238 17.6929C13.2988 17.7529 13.3946 17.7806 13.49 17.77ZM13.49 17.64C13.5394 17.6438 13.5887 17.6322 13.6312 17.6068C13.6737 17.5814 13.7073 17.5436 13.7275 17.4984C13.7476 17.4531 13.7533 17.4028 13.7437 17.3542C13.7341 17.3057 13.7098 17.2613 13.674 17.2271C13.6382 17.1929 13.5927 17.1706 13.5437 17.1633C13.4948 17.156 13.4447 17.164 13.4005 17.1862C13.3563 17.2085 13.32 17.2438 13.2966 17.2874C13.2733 17.3311 13.264 17.3809 13.27 17.43C13.27 17.4584 13.2758 17.4866 13.2869 17.5128C13.2981 17.5389 13.3145 17.5625 13.335 17.5822C13.3556 17.6018 13.38 17.617 13.4066 17.627C13.4333 17.6369 13.4616 17.6414 13.49 17.64Z" fill="#0A9B39"/>
<path fill-rule="evenodd" clip-rule="evenodd" d="M14.09 17.7H14.22V17.43H14.51C14.5403 17.4275 14.5697 17.419 14.5967 17.4051C14.6236 17.3911 14.6475 17.372 14.6671 17.3487C14.6866 17.3255 14.7013 17.2986 14.7104 17.2697C14.7195 17.2407 14.7228 17.2102 14.72 17.18C14.7188 17.1502 14.7115 17.121 14.6986 17.0941C14.6857 17.0672 14.6675 17.0432 14.6451 17.0235C14.6226 17.0039 14.5964 16.989 14.568 16.9798C14.5397 16.9706 14.5097 16.9673 14.48 16.97H14.07L14.09 17.7ZM14.19 17.29H14.47C14.4948 17.2875 14.5177 17.2759 14.5343 17.2574C14.551 17.2389 14.5601 17.2149 14.56 17.19C14.5588 17.1782 14.5552 17.1667 14.5495 17.1562C14.5438 17.1458 14.536 17.1366 14.5267 17.1291C14.5174 17.1217 14.5067 17.1162 14.4953 17.1129C14.4838 17.1096 14.4718 17.1086 14.46 17.11H14.18L14.19 17.29Z" fill="#0A9B39"/>
<path d="M14.7 17.66C14.7 17.56 14.7 17.33 14.52 17.34H14.33C14.55 17.34 14.57 17.56 14.58 17.66" fill="#0A9B39"/>
<path fill-rule="evenodd" clip-rule="evenodd" d="M15 17.65H15.34C15.3811 17.6501 15.4219 17.6417 15.4596 17.6254C15.4974 17.6091 15.5314 17.5852 15.5595 17.5552C15.5877 17.5252 15.6093 17.4897 15.6232 17.451C15.637 17.4122 15.6427 17.3711 15.64 17.33V17.23C15.64 17.1478 15.6073 17.0689 15.5492 17.0108C15.4911 16.9527 15.4122 16.92 15.33 16.92H15V17.65ZM15.13 17.51H15.33C15.3805 17.5052 15.4275 17.4823 15.4624 17.4456C15.4974 17.4088 15.5178 17.3607 15.52 17.31V17.24C15.52 17.2142 15.5148 17.1886 15.5046 17.1649C15.4945 17.1412 15.4796 17.1198 15.4609 17.102C15.4421 17.0842 15.42 17.0704 15.3958 17.0615C15.3716 17.0526 15.3458 17.0487 15.32 17.05H15.12L15.13 17.51Z" fill="#0A9B39"/>
<path d="M15.93 17.64H16.58V17.51H16.05V17.32H16.47V17.19H16.06V17.04H16.56V16.9H15.93V17.64Z" fill="#0A9B39"/>
<path d="M16.85 17.68H17L17.05 17.18L17.15 17.69H17.26L17.45 17.21V17.7H17.57L17.64 16.98H17.45L17.27 17.47L17.09 17H16.91L16.85 17.68Z" fill="#0A9B39"/>
<path d="M18.36 17.85L18.89 17.94V17.82L18.48 17.75V17.58L18.82 17.64V17.52L18.48 17.46V17.35L18.88 17.42V17.29L18.36 17.2V17.85Z" fill="#0A9B39"/>
<path fill-rule="evenodd" clip-rule="evenodd" d="M19.74 18.12H19.87L19.93 17.86L20.22 17.93C20.2482 17.9375 20.2777 17.9393 20.3066 17.9353C20.3356 17.9313 20.3634 17.9215 20.3885 17.9066C20.4137 17.8917 20.4356 17.872 20.453 17.8485C20.4704 17.8251 20.483 17.7984 20.49 17.77C20.5054 17.7117 20.4972 17.6497 20.4673 17.5973C20.4374 17.5449 20.388 17.5064 20.33 17.49L19.93 17.39L19.74 18.12ZM19.97 17.76L20.24 17.83C20.2518 17.833 20.2641 17.8335 20.2762 17.8315C20.2882 17.8295 20.2997 17.8251 20.31 17.8186C20.3203 17.8121 20.3291 17.8035 20.336 17.7934C20.3429 17.7833 20.3476 17.772 20.35 17.76C20.3547 17.7489 20.3568 17.7369 20.3562 17.7249C20.3556 17.7128 20.3523 17.7011 20.3465 17.6905C20.3408 17.68 20.3327 17.6708 20.3229 17.6638C20.3131 17.6568 20.3019 17.6521 20.29 17.65L20 17.58L19.97 17.76Z" fill="#0A9B39"/>
<path fill-rule="evenodd" clip-rule="evenodd" d="M20.63 18.36H20.76L20.84 18.1L21.11 18.19C21.1684 18.2062 21.2307 18.1997 21.2844 18.1719C21.3382 18.1441 21.3795 18.097 21.4 18.04C21.4093 18.0111 21.4128 17.9807 21.4103 17.9504C21.4078 17.9202 21.3993 17.8907 21.3854 17.8638C21.3714 17.8368 21.3523 17.8129 21.3291 17.7934C21.3058 17.7738 21.279 17.7591 21.25 17.75L20.86 17.63L20.63 18.36ZM20.88 18.01L21.14 18.09C21.1518 18.0947 21.1644 18.0968 21.1771 18.0963C21.1897 18.0957 21.2021 18.0925 21.2134 18.0868C21.2247 18.0812 21.2348 18.0732 21.2428 18.0634C21.2508 18.0536 21.2567 18.0422 21.26 18.03C21.2647 18.0189 21.2668 18.0069 21.2662 17.9949C21.2656 17.9828 21.2623 17.9711 21.2566 17.9605C21.2508 17.9499 21.2427 17.9408 21.2329 17.9338C21.2231 17.9268 21.2119 17.9221 21.2 17.92L20.93 17.83L20.88 18.01Z" fill="#0A9B39"/>
<path d="M21.22 18.54C21.22 18.44 21.32 18.22 21.22 18.18L21 18.12C21.22 18.19 21.15 18.41 21.12 18.5" fill="#0A9B39"/>
<path fill-rule="evenodd" clip-rule="evenodd" d="M21.81 18.75C21.8526 18.7655 21.8979 18.772 21.9432 18.7692C21.9884 18.7663 22.0325 18.7542 22.0729 18.7336C22.1132 18.7129 22.1489 18.6842 22.1776 18.6492C22.2064 18.6142 22.2276 18.5736 22.24 18.53C22.2636 18.4886 22.2779 18.4425 22.282 18.395C22.286 18.3474 22.2798 18.2996 22.2636 18.2548C22.2474 18.2099 22.2216 18.1691 22.1882 18.1351C22.1547 18.1012 22.1142 18.0749 22.0696 18.0581C22.025 18.0412 21.9772 18.0343 21.9297 18.0377C21.8821 18.0411 21.8358 18.0547 21.7941 18.0777C21.7523 18.1007 21.716 18.1325 21.6877 18.1709C21.6593 18.2092 21.6397 18.2533 21.63 18.3C21.6119 18.3413 21.6022 18.3858 21.6015 18.4309C21.6008 18.476 21.609 18.5208 21.6258 18.5627C21.6425 18.6046 21.6674 18.6427 21.6991 18.6749C21.7307 18.707 21.7684 18.7326 21.81 18.75ZM21.86 18.63C21.9132 18.637 21.9672 18.6251 22.0127 18.5965C22.0581 18.5678 22.092 18.5242 22.1087 18.4732C22.1253 18.4221 22.1235 18.3669 22.1037 18.317C22.0838 18.2671 22.0472 18.2257 22 18.2C21.9731 18.1925 21.9449 18.1904 21.9172 18.1939C21.8895 18.1974 21.8627 18.2064 21.8385 18.2203C21.8143 18.2343 21.7931 18.253 21.7762 18.2752C21.7593 18.2975 21.747 18.3229 21.74 18.35C21.7282 18.3749 21.7213 18.402 21.72 18.4296C21.7186 18.4572 21.7226 18.4847 21.7319 18.5107C21.7412 18.5368 21.7555 18.5607 21.7741 18.5811C21.7926 18.6016 21.815 18.6182 21.84 18.63" fill="#0A9B39"/>
<mask id="mask2_148_195" style="mask-type:luminance" maskUnits="userSpaceOnUse" x="22" y="18" width="2" height="2">
<path d="M22.37 19L22.66 18.33L23.26 18.59L22.97 19.26L22.37 19ZM22.86 18.68L22.81 18.8L23.11 18.93L23.16 18.81L22.86 18.68Z" fill="white"/>
</mask>
<g mask="url(#mask2_148_195)">
<path fill-rule="evenodd" clip-rule="evenodd" d="M22.67 19.1C22.755 19.1296 22.8481 19.1254 22.9301 19.0881C23.012 19.0509 23.0765 18.9835 23.11 18.9C23.1496 18.8173 23.1561 18.7226 23.1282 18.6353C23.1003 18.5479 23.0402 18.4745 22.96 18.43C22.9167 18.4141 22.8706 18.4069 22.8245 18.4089C22.7784 18.4108 22.7331 18.4219 22.6913 18.4414C22.6495 18.4609 22.6119 18.4885 22.5808 18.5226C22.5497 18.5567 22.5256 18.5966 22.51 18.64C22.4897 18.6806 22.4778 18.7249 22.4748 18.7702C22.4719 18.8155 22.4781 18.8609 22.493 18.9038C22.5079 18.9466 22.5313 18.9861 22.5617 19.0198C22.5921 19.0535 22.6289 19.0808 22.67 19.1ZM22.67 18.98C22.7244 18.9959 22.7828 18.9903 22.8331 18.9642C22.8834 18.9381 22.9217 18.8936 22.94 18.84C22.9647 18.7908 22.969 18.734 22.9522 18.6816C22.9354 18.6293 22.8987 18.5856 22.85 18.56C22.8238 18.5505 22.7959 18.5464 22.768 18.5479C22.7402 18.5493 22.7129 18.5563 22.6877 18.5684C22.6626 18.5805 22.6401 18.5975 22.6216 18.6183C22.6031 18.6392 22.589 18.6636 22.58 18.69C22.5549 18.7406 22.5502 18.799 22.567 18.853C22.5837 18.907 22.6206 18.9525 22.67 18.98Z" fill="#0A9B39"/>
</g>
<path d="M22.8501 18.795L22.8102 18.8867L23.067 18.9984L23.1068 18.9067L22.8501 18.795Z" fill="#0A9B39"/>
<path d="M23.014 18.854L22.8704 19.1841L22.9621 19.224L23.1057 18.8938L23.014 18.854Z" fill="#0A9B39"/>
<path fill-rule="evenodd" clip-rule="evenodd" d="M23.21 19.34L23.33 19.4L23.45 19.16L23.71 19.29C23.7369 19.3038 23.7663 19.3122 23.7965 19.3147C23.8266 19.3171 23.857 19.3136 23.8858 19.3043C23.9146 19.2951 23.9413 19.2802 23.9643 19.2606C23.9873 19.2409 24.0063 19.217 24.02 19.19C24.0446 19.134 24.0469 19.0708 24.0265 19.0132C24.006 18.9556 23.9644 18.908 23.91 18.88L23.54 18.7L23.21 19.34ZM23.51 19.04L23.76 19.17C23.7789 19.1838 23.8016 19.1913 23.825 19.1913C23.8484 19.1913 23.8712 19.1838 23.89 19.17C23.9038 19.1512 23.9113 19.1284 23.9113 19.105C23.9113 19.0816 23.9038 19.0589 23.89 19.04L23.63 18.91L23.51 19.04Z" fill="#0A9B39"/>
<path d="M23.76 19.62C23.76 19.53 23.91 19.32 23.76 19.25L23.58 19.16C23.79 19.27 23.69 19.47 23.64 19.56" fill="#0A9B39"/>
<path d="M24 19.76L24.57 20.08L24.64 19.97L24.18 19.71L24.27 19.54L24.63 19.75L24.69 19.64L24.33 19.43L24.4 19.31L24.84 19.55L24.9 19.44L24.36 19.13L24 19.76Z" fill="#0A9B39"/>
<path d="M25.09 20.12C25.09 20.18 25.09 20.25 25.18 20.3C25.27 20.35 25.33 20.36 25.35 20.3C25.37 20.24 24.97 19.99 25.11 19.77C25.25 19.55 25.45 19.77 25.52 19.77C25.59 19.77 25.73 19.95 25.63 20.1L25.5 20.02C25.5 19.95 25.5 19.89 25.42 19.84C25.34 19.79 25.3 19.78 25.26 19.84C25.22 19.9 25.64 20.14 25.5 20.35C25.36 20.56 25.23 20.44 25.11 20.35C24.99 20.26 24.86 20.13 24.95 19.98L25.09 20.12Z" fill="#0A9B39"/>
<path d="M25.87 20.63C25.87 20.69 25.87 20.76 25.95 20.82C26.03 20.88 26.09 20.88 26.12 20.82C26.15 20.76 25.76 20.49 25.91 20.28C26.06 20.07 26.24 20.28 26.32 20.28C26.3491 20.2955 26.3748 20.3169 26.3953 20.3428C26.4157 20.3687 26.4307 20.3985 26.4391 20.4304C26.4476 20.4623 26.4494 20.4956 26.4443 20.5282C26.4393 20.5609 26.4276 20.5921 26.41 20.62L26.28 20.52C26.28 20.46 26.28 20.39 26.21 20.35C26.14 20.31 26.1 20.28 26.05 20.35C26 20.42 26.42 20.66 26.27 20.87C26.12 21.08 25.99 20.95 25.87 20.87C25.75 20.79 25.63 20.65 25.74 20.5L25.87 20.63Z" fill="#0A9B39"/>
<path fill-rule="evenodd" clip-rule="evenodd" d="M26.61 21.47C26.6597 21.5263 26.7254 21.5661 26.7984 21.5842C26.8713 21.6022 26.948 21.5976 27.0182 21.5711C27.0885 21.5445 27.149 21.4971 27.1917 21.4353C27.2344 21.3735 27.2573 21.3001 27.2573 21.225C27.2573 21.1499 27.2344 21.0765 27.1917 21.0147C27.149 20.9529 27.0885 20.9056 27.0182 20.879C26.948 20.8524 26.8713 20.8478 26.7984 20.8658C26.7254 20.8839 26.6597 20.9237 26.61 20.98C26.577 21.0117 26.5508 21.0498 26.5329 21.0919C26.515 21.134 26.5057 21.1793 26.5057 21.225C26.5057 21.2708 26.515 21.316 26.5329 21.3581C26.5508 21.4002 26.577 21.4383 26.61 21.47ZM26.69 21.36C26.7377 21.4011 26.7998 21.4216 26.8627 21.4169C26.9255 21.4122 26.9839 21.3827 27.025 21.335C27.0661 21.2873 27.0866 21.2252 27.0819 21.1623C27.0772 21.0995 27.0477 21.0411 27 21C26.952 20.9691 26.8938 20.9581 26.8379 20.9693C26.7819 20.9805 26.7324 21.013 26.7 21.06C26.6627 21.0991 26.6419 21.151 26.6419 21.205C26.6419 21.259 26.6627 21.3109 26.7 21.35" fill="#0A9B39"/>
<path d="M13.77 18.3L13.67 18.61L13.83 18.66" fill="white"/>
<path d="M13.77 18.3L13.87 18.61L13.72 18.66" fill="white"/>
<path d="M14.08 18.53H13.76V18.69" fill="white"/>
<path d="M14.08 18.53L13.82 18.72L13.72 18.59" fill="white"/>
<path d="M13.46 18.53L13.73 18.72L13.82 18.59" fill="white"/>
<path d="M13.46 18.53H13.79V18.69" fill="white"/>
<path d="M14.0001 18.89L13.9001 18.58L13.7501 18.63" fill="white"/>
<path d="M14.0001 18.89L13.7401 18.7L13.8401 18.57" fill="white"/>
<path d="M13.58 18.89L13.84 18.7L13.75 18.57" fill="white"/>
<path d="M13.58 18.89L13.68 18.58L13.84 18.63" fill="white"/>
<path d="M14.45 21.51L14.35 21.82L14.5 21.87" fill="white"/>
<path d="M14.45 21.51L14.55 21.82L14.39 21.87" fill="white"/>
<path d="M14.7601 21.74H14.4301V21.9" fill="white"/>
<path d="M14.76 21.74L14.49 21.93L14.4 21.8" fill="white"/>
<path d="M14.14 21.74L14.4 21.93L14.5 21.8" fill="white"/>
<path d="M14.14 21.74H14.46V21.9" fill="white"/>
<path d="M14.64 22.1L14.54 21.79L14.38 21.84" fill="white"/>
<path d="M14.64 22.1L14.37 21.91L14.47 21.78" fill="white"/>
<path d="M14.26 22.1L14.52 21.91L14.42 21.78" fill="white"/>
<path d="M14.26 22.1L14.36 21.79L14.51 21.84" fill="white"/>
<path d="M13.51 22.25L13.43 22.51H13.56" fill="white"/>
<path d="M13.51 22.25L13.6 22.51H13.47" fill="white"/>
<path d="M13.77 22.44H13.5V22.57" fill="white"/>
<path d="M13.77 22.44L13.55 22.6L13.47 22.49" fill="white"/>
<path d="M13.25 22.44L13.47 22.6L13.55 22.49" fill="white"/>
<path d="M13.25 22.44H13.53V22.57" fill="white"/>
<path d="M13.67 22.74L13.59 22.48L13.46 22.53" fill="white"/>
<path d="M13.67 22.74L13.45 22.58L13.53 22.47" fill="white"/>
<path d="M13.35 22.74L13.57 22.58L13.49 22.47" fill="white"/>
<path d="M13.35 22.74L13.44 22.48L13.57 22.53" fill="white"/>
<path d="M15.1901 21.21V21.36H15.2601" fill="white"/>
<path d="M15.19 21.21L15.24 21.36H15.17" fill="white"/>
<path d="M15.3401 21.32H15.1901V21.4" fill="white"/>
<path d="M15.34 21.32L15.22 21.41L15.17 21.35" fill="white"/>
<path d="M15.05 21.32L15.17 21.41L15.22 21.35" fill="white"/>
<path d="M15.05 21.32H15.2V21.4" fill="white"/>
<path d="M15.29 21.5V21.35H15.21" fill="white"/>
<path d="M15.29 21.5L15.16 21.4L15.21 21.34" fill="white"/>
<path d="M15.1 21.5L15.23 21.4L15.18 21.34" fill="white"/>
<path d="M15.1 21.5L15.15 21.35H15.23" fill="white"/>
<path d="M16 22.32L15.91 22.58H16.04" fill="white"/>
<path d="M16 22.32L16.08 22.58H15.95" fill="white"/>
<path d="M16.29 22.51H16V22.65" fill="white"/>
<path d="M16.29 22.51L16.07 22.67L16 22.56" fill="white"/>
<path d="M15.78 22.51L16 22.67L16.08 22.56" fill="white"/>
<path d="M15.78 22.51H16.05V22.65" fill="white"/>
<path d="M16.2 22.82L16.11 22.56H15.98" fill="white"/>
<path d="M16.2001 22.82L16.0001 22.66L16.0901 22.54" fill="white"/>
<path d="M15.88 22.82L16.1 22.66L16 22.54" fill="white"/>
<path d="M15.88 22.82L15.96 22.56H16.09" fill="white"/>
<path d="M15.8101 23.13L15.7401 23.34H15.8401" fill="white"/>
<path d="M15.8101 23.13L15.8701 23.34H15.7701" fill="white"/>
<path d="M16 23.29H15.8V23.39" fill="white"/>
<path d="M16 23.29L15.83 23.41L15.76 23.33" fill="white"/>
<path d="M15.6 23.29L15.78 23.41L15.84 23.33" fill="white"/>
<path d="M15.6 23.29H15.82V23.39" fill="white"/>
<path d="M15.93 23.53L15.87 23.32H15.76" fill="white"/>
<path d="M15.93 23.53L15.76 23.4L15.82 23.31" fill="white"/>
<path d="M15.6801 23.53L15.8601 23.4L15.7901 23.31" fill="white"/>
<path d="M15.6801 23.53L15.7501 23.32H15.8501" fill="white"/>
<path d="M22.37 17.31L22.27 17.62L22.42 17.67" fill="white"/>
<path d="M22.37 17.31L22.47 17.62L22.31 17.67" fill="white"/>
<path d="M22.68 17.53H22.35V17.7" fill="white"/>
<path d="M22.68 17.53L22.41 17.72L22.32 17.59" fill="white"/>
<path d="M22.06 17.53L22.32 17.72L22.42 17.59" fill="white"/>
<path d="M22.06 17.53H22.38V17.7" fill="white"/>
<path d="M22.56 17.9L22.46 17.59L22.3 17.64" fill="white"/>
<path d="M22.56 17.9L22.29 17.71L22.39 17.57" fill="white"/>
<path d="M22.17 17.9L22.44 17.71L22.34 17.57" fill="white"/>
<path d="M22.17 17.9L22.28 17.59L22.43 17.64" fill="white"/>
<path d="M25.35 22.35L25.24 22.66L25.4 22.71" fill="white"/>
<path d="M25.35 22.35L25.45 22.66L25.29 22.71" fill="white"/>
<path d="M25.66 22.58H25.33V22.74" fill="white"/>
<path d="M25.66 22.58L25.39 22.77L25.3 22.64" fill="white"/>
<path d="M25 22.58L25.27 22.77L25.36 22.64" fill="white"/>
<path d="M25 22.58H25.33V22.74" fill="white"/>
<path d="M25.54 22.94L25.44 22.63L25.28 22.68" fill="white"/>
<path d="M25.54 22.94L25.27 22.75L25.37 22.62" fill="white"/>
<path d="M25.15 22.94L25.42 22.75L25.32 22.62" fill="white"/>
<path d="M25.15 22.94L25.25 22.63L25.41 22.68" fill="white"/>
<path d="M26.4 22.53L26.34 22.74H26.44" fill="white"/>
<path d="M26.4001 22.53L26.4701 22.74H26.3701" fill="white"/>
<path d="M26.61 22.68H26.39V22.79" fill="white"/>
<path d="M26.61 22.68L26.43 22.81L26.37 22.72" fill="white"/>
<path d="M26.2 22.68L26.37 22.81L26.44 22.72" fill="white"/>
<path d="M26.2 22.68H26.41V22.79" fill="white"/>
<path d="M26.53 22.93L26.46 22.72H26.36" fill="white"/>
<path d="M26.53 22.93L26.36 22.8L26.42 22.71" fill="white"/>
<path d="M26.28 22.93L26.45 22.8L26.39 22.71" fill="white"/>
<path d="M26.28 22.93L26.34 22.72H26.45" fill="white"/>
<path d="M25.66 23.08L25.57 23.34H25.7" fill="white"/>
<path d="M25.66 23.08L25.74 23.34H25.61" fill="white"/>
<path d="M25.92 23.27H25.64V23.4" fill="white"/>
<path d="M25.92 23.27L25.7 23.43L25.62 23.32" fill="white"/>
<path d="M25.4 23.27L25.62 23.43L25.7 23.32" fill="white"/>
<path d="M25.4 23.27H25.67V23.4" fill="white"/>
<path d="M25.82 23.57L25.73 23.31L25.6 23.36" fill="white"/>
<path d="M25.82 23.57L25.6 23.41L25.68 23.3" fill="white"/>
<path d="M25.5 23.57L25.72 23.41L25.64 23.3" fill="white"/>
<path d="M25.5 23.57L25.58 23.31L25.71 23.36" fill="white"/>
<path d="M23.82 24.68L23.74 24.94H23.86" fill="white"/>
<path d="M23.82 24.68L23.9 24.94H23.77" fill="white"/>
<path d="M24.0801 24.87H23.8101V25" fill="white"/>
<path d="M24.08 24.87L23.86 25.03L23.78 24.92" fill="white"/>
<path d="M23.56 24.87L23.78 25.03L23.86 24.92" fill="white"/>
<path d="M23.56 24.87H23.83V25" fill="white"/>
<path d="M24 25.17L23.92 24.91H23.79" fill="white"/>
<path d="M24 25.17L23.76 25L23.84 24.89" fill="white"/>
<path d="M23.66 25.17L23.88 25.01L23.8 24.9" fill="white"/>
<path d="M23.66 25.17L23.74 24.91H23.87" fill="white"/>
<path d="M23.8101 25.5L23.7401 25.71H23.8501" fill="white"/>
<path d="M23.8101 25.5L23.8801 25.71H23.7701" fill="white"/>
<path d="M24 25.65H23.8V25.76" fill="white"/>
<path d="M24 25.65L23.82 25.78L23.76 25.69" fill="white"/>
<path d="M23.6 25.65L23.78 25.78L23.84 25.69" fill="white"/>
<path d="M23.6 25.65H23.82V25.76" fill="white"/>
<path d="M23.94 25.9L23.87 25.69H23.77" fill="white"/>
<path d="M23.94 25.9L23.76 25.77L23.82 25.68" fill="white"/>
<path d="M23.6801 25.9L23.8601 25.77L23.7901 25.68" fill="white"/>
<path d="M23.6801 25.9L23.7501 25.69H23.8501" fill="white"/>
<path d="M24.58 24.13L24.51 24.34H24.61" fill="white"/>
<path d="M24.58 24.13L24.64 24.34H24.54" fill="white"/>
<path d="M24.7799 24.28H24.5699V24.39" fill="white"/>
<path d="M24.78 24.28L24.61 24.41L24.54 24.32" fill="white"/>
<path d="M24.37 24.28L24.55 24.41L24.61 24.32" fill="white"/>
<path d="M24.37 24.28H24.59V24.39" fill="white"/>
<path d="M24.71 24.53L24.64 24.32H24.53" fill="white"/>
<path d="M24.71 24.53L24.53 24.4L24.59 24.31" fill="white"/>
<path d="M24.45 24.53L24.63 24.4L24.56 24.31" fill="white"/>
<path d="M24.45 24.53L24.52 24.32H24.62" fill="white"/>
<path d="M25.19 23.69L25.11 23.95H25.23" fill="white"/>
<path d="M25.19 23.69L25.27 23.95H25.14" fill="white"/>
<path d="M25.45 23.88H25.18V24" fill="white"/>
<path d="M25.45 23.88L25.23 24.04L25.15 23.93" fill="white"/>
<path d="M24.93 23.88L25.15 24.04L25.23 23.93" fill="white"/>
<path d="M24.93 23.88H25.2V24" fill="white"/>
<path d="M25.35 24.19L25.27 23.93H25.14" fill="white"/>
<path d="M25.35 24.19L25.13 24L25.21 23.88" fill="white"/>
<path d="M25 24.19L25.22 24.03L25.14 23.91" fill="white"/>
<path d="M25 24.19L25.08 23.93H25.21" fill="white"/>
<path d="M23.79 24L23.72 24.2H23.82" fill="white"/>
<path d="M23.7901 24L23.8601 24.2H23.7501" fill="white"/>
<path d="M24 24.14H23.78V24.25" fill="white"/>
<path d="M24 24.14L23.82 24.26L23.76 24.18" fill="white"/>
<path d="M23.58 24.14L23.76 24.26L23.82 24.18" fill="white"/>
<path d="M23.58 24.14H23.8V24.25" fill="white"/>
<path d="M23.92 24.38L23.85 24.17H23.75" fill="white"/>
<path d="M23.92 24.38L23.74 24.25L23.8 24.16" fill="white"/>
<path d="M23.66 24.38L23.84 24.25L23.77 24.16" fill="white"/>
<path d="M23.66 24.38L23.73 24.17H23.83" fill="white"/>
<path d="M17.09 20L17 20.3H17.13" fill="white"/>
<path d="M17.09 20L17.18 20.26H17.05" fill="white"/>
<path d="M17.35 20.23H17.08V20.36" fill="white"/>
<path d="M17.35 20.23L17.13 20.39L17.05 20.28" fill="white"/>
<path d="M16.83 20.23L17.06 20.39L17.14 20.28" fill="white"/>
<path d="M16.83 20.23H17.11V20.36" fill="white"/>
<path d="M17.25 20.53L17.17 20.27H17.04" fill="white"/>
<path d="M17.25 20.53L17 20.37L17.08 20.26" fill="white"/>
<path d="M16.93 20.53L17.15 20.37L17.07 20.26" fill="white"/>
<path d="M16.93 20.53L17.02 20.27H17.15" fill="white"/>
<path d="M22.08 19.4L22.01 19.61H22.11" fill="white"/>
<path d="M22.08 19.4L22.14 19.61H22.04" fill="white"/>
<path d="M22.28 19.55H22.07V19.66" fill="white"/>
<path d="M22.28 19.55L22.11 19.68L22 19.59" fill="white"/>
<path d="M21.87 19.55L22.04 19.68L22.11 19.59" fill="white"/>
<path d="M21.87 19.55H22.09V19.66" fill="white"/>
<path d="M22.2 19.79L22.14 19.59H22.03" fill="white"/>
<path d="M22.2 19.79L22 19.66L22.06 19.58" fill="white"/>
<path d="M22 19.79L22.17 19.66L22.11 19.58" fill="white"/>
<path d="M22 19.79L22.07 19.59H22.17" fill="white"/>
<path d="M20 23.1L19.9 23.41L20.05 23.46" fill="white"/>
<path d="M20 23.1L20.1 23.41L19.95 23.46" fill="white"/>
<path d="M20.31 23.32H20V23.49" fill="white"/>
<path d="M20.31 23.32L20.05 23.52L19.95 23.38" fill="white"/>
<path d="M19.69 23.32L19.95 23.52L20.05 23.38" fill="white"/>
<path d="M19.69 23.32H20V23.49" fill="white"/>
<path d="M20.19 23.69L20.09 23.38L19.94 23.43" fill="white"/>
<path d="M20.19 23.69L19.93 23.5L20.02 23.37" fill="white"/>
<path d="M19.81 23.69L20.07 23.5L20 23.37" fill="white"/>
<path d="M19.81 23.69L19.91 23.38L20.06 23.43" fill="white"/>
<path d="M20.88 21.64L20.8 21.9H20.93" fill="white"/>
<path d="M20.88 21.64L20.97 21.9H20.84" fill="white"/>
<path d="M21.14 21.83H20.87V22" fill="white"/>
<path d="M21.14 21.83L20.92 21.99L20.84 21.88" fill="white"/>
<path d="M20.62 21.83L20.84 21.99L20.92 21.88" fill="white"/>
<path d="M20.62 21.83H20.9V22" fill="white"/>
<path d="M21 22.13V21.87H20.87" fill="white"/>
<path d="M21 22.13L20.82 22L20.9 21.89" fill="white"/>
<path d="M20.72 22.13L20.94 21.97L20.86 21.86" fill="white"/>
<path d="M20.72 22.13L20.81 21.87H20.94" fill="white"/>
<path d="M20 21L19.92 21.26H20.05" fill="white"/>
<path d="M20 21L20.08 21.26H19.95" fill="white"/>
<path d="M20.26 21.14H20V21.28" fill="white"/>
<path d="M20.26 21.14L20 21.3V21.19" fill="white"/>
<path d="M19.74 21.14L19.96 21.3L20.04 21.19" fill="white"/>
<path d="M19.74 21.14H20V21.28" fill="white"/>
<path d="M20.16 21.45L20.08 21.19H19.95" fill="white"/>
<path d="M20.16 21.45L19.94 21.28L20.02 21.17" fill="white"/>
<path d="M19.84 21.45L20.06 21.28L20 21.17" fill="white"/>
<path d="M19.84 21.45L19.92 21.19H20.05" fill="white"/>
<path d="M19.23 21.69L19.16 21.9H19.27" fill="white"/>
<path d="M19.2299 21.69L19.2999 21.9H19.2" fill="white"/>
<path d="M19.44 21.84H19.22V22" fill="white"/>
<path d="M19.44 21.84L19.26 21.97L19.2 21.88" fill="white"/>
<path d="M19 21.84L19.18 21.97L19.25 21.88" fill="white"/>
<path d="M19 21.84H19.22V22" fill="white"/>
<path d="M19.36 22.09L19.29 21.88H19.19" fill="white"/>
<path d="M19.36 22.09L19.18 22L19.25 21.91" fill="white"/>
<path d="M19.1 22.09L19.28 21.96L19.22 21.87" fill="white"/>
<path d="M19.1 22.09L19.17 21.88H19.27" fill="white"/>
<path d="M19.6201 22.28L19.5701 22.43H19.6401" fill="white"/>
<path d="M19.6201 22.28V22.43H19.55" fill="white"/>
<path d="M19.76 22.39H19.61V22.47" fill="white"/>
<path d="M19.76 22.39L19.64 22.48L19.59 22.42" fill="white"/>
<path d="M19.47 22.39L19.59 22.48L19.64 22.42" fill="white"/>
<path d="M19.47 22.39H19.62V22.47" fill="white"/>
<path d="M19.71 22.57L19.66 22.42H19.59" fill="white"/>
<path d="M19.71 22.57L19.58 22.47L19.63 22.41" fill="white"/>
<path d="M19.52 22.57L19.65 22.47V22.41" fill="white"/>
<path d="M19.52 22.57L19.57 22.42H19.65" fill="white"/>
<path d="M22.28 24.87L22.2 25.12L22.33 25.17" fill="white"/>
<path d="M22.28 24.87L22.37 25.12L22.24 25.17" fill="white"/>
<path d="M22.54 25.05H22.27V25.19" fill="white"/>
<path d="M22.54 25.05L22.32 25.21L22.24 25.1" fill="white"/>
<path d="M22 25.05L22.22 25.21L22.3 25.1" fill="white"/>
<path d="M22 25.05H22.28V25.19" fill="white"/>
<path d="M22.44 25.36L22.36 25.1H22.23" fill="white"/>
<path d="M22.44 25.36L22.22 25.2L22.3 25.09" fill="white"/>
<path d="M22.12 25.36L22.34 25.2L22.26 25.09" fill="white"/>
<path d="M22.12 25.36L22.21 25.1H22.34" fill="white"/>
<path d="M22.9401 24.25L22.8701 24.45H22.9701" fill="white"/>
<path d="M22.94 24.25L23 24.45H22.9" fill="white"/>
<path d="M23.1401 24.4H22.9301V24.5" fill="white"/>
<path d="M23.14 24.4L22.97 24.52L22.9 24.44" fill="white"/>
<path d="M22.73 24.4L22.91 24.52L22.97 24.44" fill="white"/>
<path d="M22.73 24.4H23V24.5" fill="white"/>
<path d="M23.07 24.64L23 24.43H22.89" fill="white"/>
<path d="M23.07 24.64L22.89 24.51L22.95 24.42" fill="white"/>
<path d="M22.8101 24.64L22.9901 24.51L22.9201 24.42" fill="white"/>
<path d="M22.8101 24.64L22.8801 24.43H22.9801" fill="white"/>
<path d="M21.68 24.06L21.61 24.27H21.72" fill="white"/>
<path d="M21.68 24.06L21.75 24.27H21.65" fill="white"/>
<path d="M21.89 24.21H21.67V24.32" fill="white"/>
<path d="M21.89 24.21L21.71 24.34L21.65 24.25" fill="white"/>
<path d="M21.47 24.21L21.65 24.34L21.71 24.25" fill="white"/>
<path d="M21.47 24.21H21.69V24.32" fill="white"/>
<path d="M21.81 24.45L21.74 24.25H21.64" fill="white"/>
<path d="M21.81 24.45L21.63 24.32L21.7 24.24" fill="white"/>
<path d="M21.55 24.45L21.73 24.32L21.67 24.24" fill="white"/>
<path d="M21.55 24.45L21.6201 24.25H21.72" fill="white"/>
<path d="M16.94 23.72L16.84 24.03H16.99" fill="white"/>
<path d="M16.94 23.72L17 24H16.84" fill="white"/>
<path d="M17.25 24H16.92V24.16" fill="white"/>
<path d="M17.25 24L16.98 24.19L16.89 24" fill="white"/>
<path d="M16.63 24L16.89 24.19L17 24" fill="white"/>
<path d="M16.63 24H17V24.16" fill="white"/>
<path d="M17.13 24.31L17 24L16.84 24.05" fill="white"/>
<path d="M17.1301 24.31L16.8701 24.12L17.0001 24" fill="white"/>
<path d="M16.75 24.31L17.01 24.12L16.91 23.99" fill="white"/>
<path d="M16.75 24.31L16.85 24L17 24.05" fill="white"/>
<path d="M20.1 25.93H20V26" fill="white"/>
<path d="M20.1 25.93L20 26Z" fill="white"/>
<path d="M19.9 25.93L20 26Z" fill="white"/>
<path d="M19.9 25.93H20V26" fill="white"/>
<path d="M20.06 26.06L20 26Z" fill="white"/>
<path d="M20.06 26.06L20 26Z" fill="white"/>
<path d="M19.94 26.06L20 26Z" fill="white"/>
<path d="M19.94 26.06L20 26Z" fill="white"/>
</g>
</g>
<defs>
<clipPath id="clip0_148_195">
<rect width="40" height="40" fill="white"/>
</clipPath>
</defs>
</svg>
