<svg width="100" height="100" viewBox="0 0 100 100" fill="none" xmlns="http://www.w3.org/2000/svg">
<path d="M97.3596 40.9531C94.0002 39 89.5471 38.7656 85.7971 39.8594C85.3283 35.7969 82.6721 32.2812 79.5471 29.7812L78.2971 28.7656L77.2033 30.0156C75.0939 32.4375 74.4689 36.5 74.7814 39.625C75.0158 41.8906 75.7189 44.2344 77.1252 46.1094C76.0314 46.7344 74.8596 47.5937 73.7658 47.9844C71.5783 48.7656 69.1564 49.5469 66.8127 49.5469H61.5783V38.5312H51.422V19H39.7033V28.375H20.1721V38.5312H10.0158V49.4688H1.2658L1.10955 50.6406C0.718926 55.6406 1.34393 60.4844 3.4533 65.0938L4.3908 66.9688C10.5627 77.4375 21.3439 81.8125 33.1408 81.8125C55.9533 81.8125 74.7814 71.5781 83.3752 50.0938C89.1564 50.4062 95.0939 48.6875 97.9064 43.1406L98.6096 41.7344L97.3596 40.9531ZM21.7346 30.7188H29.5471V39.3125H21.7346V30.7188ZM31.9689 65.25C31.9689 66.5781 30.8752 67.6719 29.5471 67.6719C28.2189 67.6719 27.1252 66.5781 27.1252 65.25C27.1252 63.9219 28.2189 62.8281 29.5471 62.8281C30.8752 62.9062 31.9689 63.9219 31.9689 65.25ZM21.7346 40.875H29.5471V49.4688H21.7346V40.875ZM11.5783 40.875H20.1721V49.4688H11.5783V40.875ZM33.2189 80.0937C20.8752 80.0156 14.2346 75.875 8.7658 70.4063C10.4064 70.4844 11.9689 70.5625 13.3752 70.5625C14.6252 70.5625 15.8752 70.5625 17.0471 70.4844C20.0939 70.3281 22.7502 69.9375 24.9377 69.3125C26.7345 73.4531 30.0158 77.2812 35.8752 80.0937H33.2189ZM39.7033 49.4688H31.1096V40.875H39.7033V49.4688ZM39.7033 39.3125H31.1096V30.7188H39.7033V39.3125ZM49.8596 49.4688H41.2658V40.875H49.8596V49.4688ZM49.8596 39.3125H41.2658V30.7188H49.8596V39.3125ZM49.8596 29.1562H41.2658V20.5625H49.8596V29.1562ZM60.0158 49.4688H51.422V40.875H60.0158V49.4688ZM30.1721 63.6875C30.0158 63.6094 29.7814 63.5312 29.5471 63.5312C28.6096 63.5312 27.8283 64.3125 27.8283 65.25C27.8283 66.1875 28.6096 66.9688 29.5471 66.9688C30.4846 66.9688 31.2658 66.1875 31.2658 65.25C31.2658 65.0156 31.1877 64.7812 31.1096 64.625C30.9533 64.8594 30.7971 65.0156 30.4846 65.0156C30.0939 65.0156 29.7814 64.7031 29.7814 64.3125C29.8596 64 30.0158 63.7656 30.1721 63.6875Z" fill="#019BC6"/>
</svg>
