<svg width="100" height="100" viewBox="0 0 100 100" fill="none" xmlns="http://www.w3.org/2000/svg">
<path d="M64.1579 32.117H64.4994L64.3287 31.9463L76.282 19.9929V19.7367C66.2071 10.8571 52.2899 7.78336 39.3973 11.6255C26.5048 15.4677 16.6005 25.7134 13.0145 38.6914C13.1853 38.606 13.4414 38.5206 13.6976 38.5206C18.1374 35.6177 23.431 33.91 28.9808 33.91C30.8592 33.91 32.6522 34.0808 34.4452 34.4223C34.5306 34.3369 34.616 34.3369 34.7014 34.3369C42.3857 25.8842 55.3636 24.8596 64.2433 32.117H64.1579Z" fill="#EA4535"/>
<path d="M87.6377 38.5206C85.674 31.2632 81.5757 24.6889 75.8551 19.6514L63.6456 31.7755C68.7685 35.9592 71.7568 42.2774 71.5861 48.8518V50.9863C86.0155 50.9863 86.0155 72.5024 71.5861 72.5024H49.8992V89.5786H49.8138L49.8992 89.7494H71.5861C84.0517 89.8348 95.0659 81.8089 98.7373 70.0263C102.409 58.2437 97.8835 45.4365 87.6377 38.5206Z" fill="#557EBF"/>
<path d="M28.6393 89.8348H51.0946V72.5877H28.6393C27.0171 72.5877 25.4802 72.2462 24.0287 71.6486L11.0508 84.1142V84.285C16.1736 87.9564 22.3211 89.9201 28.7247 89.9201L28.6393 89.8348Z" fill="#36A852"/>
<path d="M29.6639 33.4831C16.9421 33.5685 5.67174 41.4236 1.57344 52.9501C-2.52486 64.5619 1.57344 77.2837 11.6484 84.7973L24.9679 72.0755C17.6251 68.9164 15.9175 59.6952 21.5527 54.3162C27.1878 48.8518 36.7505 50.5594 40.0804 57.5606L53.3999 44.8388C47.7647 37.7522 38.9704 33.5685 29.6639 33.6539V33.4831Z" fill="#F9BC15"/>
</svg>
