<svg width="100" height="100" viewBox="0 0 100 100" fill="none" xmlns="http://www.w3.org/2000/svg">
<path d="M4.5031 56.9284C0.597864 53.0231 0.597863 46.6915 4.50311 42.7862L42.8267 4.46263C46.732 0.557387 53.0636 0.557385 56.9689 4.46263L95.5191 43.0129C99.4243 46.9181 99.4243 53.2498 95.5191 57.155L57.1955 95.4786C53.2902 99.3839 46.9586 99.3839 43.0534 95.4786L4.5031 56.9284Z" fill="white"/>
<path d="M98.1159 45.546L54.4635 1.88578C51.9512 -0.628595 47.874 -0.628595 45.3579 1.88578L36.2951 10.9531L47.7933 22.4539C50.4662 21.5516 53.5297 22.1569 55.6594 24.287C56.6743 25.3031 57.3829 26.5844 57.704 27.9843C58.0252 29.3842 57.946 30.8463 57.4754 32.2033L68.557 43.2891C71.2379 42.3646 74.3323 42.9619 76.4723 45.1071C79.466 48.0992 79.466 52.9497 76.4723 55.9433C75.7608 56.6553 74.9161 57.22 73.9864 57.6054C73.0567 57.9907 72.0602 58.189 71.0538 58.189C70.0474 58.189 69.0509 57.9907 68.1212 57.6054C67.1915 57.22 66.3468 56.6553 65.6354 55.9433C64.5665 54.8735 63.8379 53.5114 63.5412 52.0283C63.2445 50.5453 63.3931 49.0076 63.9682 47.6088L53.6342 37.2717L53.6326 64.4759C54.3824 64.8452 55.067 65.3343 55.6594 65.924C58.6523 68.9161 58.6523 73.765 55.6594 76.7634C52.6664 79.7555 47.8154 79.7555 44.8256 76.7634C41.8335 73.7658 41.588 68.9169 44.5793 65.924C45.3191 65.1849 46.0485 64.6264 46.8405 64.2525V36.7963C46.0485 36.4224 45.3199 35.8679 44.5785 35.1241C42.3126 32.8584 41.8889 29.5313 43.0516 26.746L31.7791 15.4075L1.87804 45.344C-0.636549 47.8607 -0.620709 51.9389 1.89388 54.454L45.5535 98.1142C48.0665 100.629 52.1469 100.629 54.6638 98.1142L98.1128 54.6568C100.627 52.1409 100.63 48.0603 98.1159 45.546Z" fill="#F34F29"/>
</svg>
