<svg width="100" height="100" viewBox="0 0 100 100" fill="none" xmlns="http://www.w3.org/2000/svg">
<path d="M96.9757 49.2344C96.9757 43.225 92.4226 38.168 86.3101 36.725L99.9999 0.0882874H32.1562L45.8773 36.8406C39.9569 38.4 35.5929 43.3688 35.5929 49.2649C35.5929 53.5977 37.9819 57.4399 41.6108 59.8086C40.1796 61.6578 38.5226 63.3633 36.6452 64.9805C33.1116 67.9867 29.1929 70.2969 24.9601 71.8289C21.1397 69.4883 19.4851 65.3563 20.9804 61.657C26.8062 60.0399 31.0429 55.0992 31.0429 49.2922C31.0429 42.157 24.6429 36.3766 16.8085 36.3766C8.94444 36.3766 2.54834 42.1844 2.54834 49.3219C2.54834 52.8477 4.13819 56.082 6.68663 58.3922C6.46319 58.7984 6.24131 59.2008 6.01787 59.6344C3.88506 63.6235 1.46475 68.1305 0.539749 73.1875C-1.30634 83.2977 1.71788 91.4188 9.0085 96.0117C13.1163 98.5844 17.639 99.8844 22.5101 99.8844C30.8804 99.8844 39.3827 96.0696 47.5952 92.3703C53.4546 89.743 59.503 86.9961 65.4569 85.6688C67.6546 85.1774 69.946 84.8875 72.3663 84.5703C77.2671 83.9352 82.3304 83.2703 86.8835 80.8719C92.1999 78.0703 95.8288 73.3883 96.8812 68.0149C97.6741 63.882 96.8812 59.7227 94.8421 56.082C96.2349 54.0705 96.9799 51.6811 96.9757 49.2344ZM90.7687 49.2344C90.7687 53.25 87.1702 56.5156 82.7452 56.5156C78.3202 56.5156 74.7218 53.25 74.7218 49.2344C74.7218 47.9336 75.1038 46.6922 75.7718 45.6234C76.0257 45.2172 76.346 44.8149 76.6624 44.4672C76.9978 44.1096 77.3717 43.7903 77.7773 43.5149L77.8108 43.4844C78.064 43.3109 78.3507 43.1367 78.6374 42.9656C78.6374 42.9656 78.6687 42.9656 78.6687 42.9352C78.796 42.8774 78.9241 42.7914 79.053 42.7336C79.0835 42.7336 79.114 42.7031 79.1468 42.7031C79.2757 42.6484 79.4343 42.5906 79.5921 42.532C79.7428 42.4794 79.8916 42.4216 80.0382 42.3586C80.0694 42.3586 80.1023 42.3274 80.1327 42.3274C80.2608 42.3008 80.389 42.2422 80.5147 42.2149C80.5483 42.2149 80.6124 42.1844 80.6429 42.1844C80.8015 42.157 80.9296 42.1266 81.0882 42.0984H81.1218L81.5983 42.0102C81.6312 42.0102 81.6921 42.0102 81.7257 41.9828C81.8538 41.9828 81.9796 41.9524 82.1077 41.9524H82.2663C82.4249 41.9524 82.5866 41.925 82.7757 41.925H83.1905C83.3155 41.925 83.414 41.925 83.539 41.9524H83.603C83.8593 41.9836 84.1124 42.0102 84.3687 42.0688C87.9976 42.7609 90.7687 45.7094 90.7687 49.2344ZM41.0366 5.86563H91.1163L79.6233 36.6367C79.1468 36.725 78.6679 36.868 78.1921 37.0117L66.0952 14.6211L53.964 36.8672C53.4851 36.7242 52.9757 36.6359 52.4687 36.55L41.0366 5.86563ZM63.7999 46.7188C63.196 44.0024 61.6671 41.5766 59.503 39.7852L66.0952 27.7094L72.7476 40.0445C70.7733 41.8359 69.3413 44.1188 68.7679 46.7188H63.7999ZM47.8515 42.1563C48.0101 42.125 48.1382 42.0984 48.2968 42.068H48.3913C48.5194 42.0406 48.6483 42.0406 48.7733 42.0094H48.9015C49.0296 42.0094 49.1241 41.982 49.2523 41.982H50.4944C50.6194 41.982 50.7171 42.0094 50.8116 42.0094C50.8757 42.0094 50.9062 42.0094 50.9702 42.0406C51.0983 42.068 51.1929 42.068 51.3218 42.0984C51.3515 42.0984 51.3851 42.0984 51.4491 42.1258C51.6085 42.1563 51.7671 42.1836 51.8944 42.2141H51.9257C52.0538 42.2414 52.1819 42.2688 52.3069 42.3274C52.3405 42.3274 52.371 42.3578 52.4351 42.3578C52.5296 42.3852 52.6577 42.4156 52.7523 42.4734C52.7858 42.4734 52.8163 42.5008 52.8499 42.5008C52.9749 42.5594 53.1038 42.5899 53.2319 42.6477H53.2624C53.421 42.7024 53.5491 42.7602 53.6772 42.8492H53.7085C53.8358 42.907 53.964 42.9922 54.0921 43.05C54.1233 43.05 54.1233 43.0813 54.153 43.0813C54.2812 43.1359 54.3765 43.2242 54.5046 43.282L54.5382 43.3094C54.9194 43.5695 55.2702 43.8594 55.6179 44.1492L55.6515 44.1766C55.9694 44.4938 56.2866 44.8414 56.5429 45.2172C57.3702 46.3734 57.8491 47.732 57.8491 49.2055C57.8491 53.2219 54.2507 56.4844 49.8257 56.4844C45.4007 56.4844 41.8022 53.2219 41.8022 49.2055C41.7694 45.8242 44.3483 42.9649 47.8515 42.1563ZM16.5218 41.9516C20.9476 41.9516 24.5452 45.2172 24.5452 49.2328C24.5452 53.2492 20.9476 56.5141 16.5218 56.5141C12.0968 56.5141 8.49834 53.2492 8.49834 49.2328C8.49834 45.2172 12.0968 41.9516 16.5218 41.9516ZM90.5765 67.0039C89.8773 70.6992 87.3593 73.9375 83.6671 75.8719C80.1968 77.6938 75.9304 78.2703 71.4413 78.8477C68.9913 79.1649 66.4124 79.5125 63.928 80.0617C57.3062 81.5359 50.9398 84.4258 44.7632 87.1969C36.8679 90.7524 29.4155 94.1031 22.5101 94.1031C18.9116 94.1031 15.6952 93.1789 12.6405 91.2438C5.63663 86.8524 5.98428 78.6188 6.81475 74.1109C7.57725 69.8906 9.71084 65.9328 11.7491 62.1485C11.8741 61.9164 11.9718 61.7149 12.0968 61.4828C12.7991 61.7149 13.5312 61.8891 14.2944 62.0047C13.0858 68.1297 16.5218 74.4563 23.2085 77.5781L24.4194 78.1547L25.7233 77.7211C31.296 75.9297 36.453 73.0125 41.0062 69.1117C43.5851 66.9149 45.7827 64.5469 47.6288 61.9742C48.3608 62.0906 49.0937 62.1211 49.8257 62.1211C56.4483 62.1211 62.0179 57.9883 63.6108 52.4406H68.9577C70.5507 58.0164 76.1226 62.1203 82.7452 62.1203C85.3882 62.1203 87.839 61.4563 89.9382 60.3297C90.7687 62.4961 91.0218 64.7485 90.5765 67.0039Z" fill="#99425B"/>
</svg>
