<svg width="122" height="120" viewBox="0 0 122 120" fill="none" xmlns="http://www.w3.org/2000/svg">
<g filter="url(#filter0_df_101_157)">
<path d="M18.1383 36.3822C17.6118 34.1015 19.0338 31.8258 21.3145 31.2992L95.6466 14.1383C97.9273 13.6118 100.203 15.0338 100.73 17.3145L117.89 91.6466C118.417 93.9273 116.995 96.203 114.714 96.7295L40.3822 113.89C38.1015 114.417 35.8258 112.995 35.2992 110.714L18.1383 36.3822Z" fill="white"/>
<path d="M21.2857 31.2705C19.005 31.797 17.583 34.0727 18.1096 36.3534L35.2705 110.685C35.797 112.966 38.0727 114.388 40.3534 113.862L114.685 96.7008C116.966 96.1742 118.388 93.8985 117.862 91.6178L100.701 17.2857C100.174 15.005 97.8985 13.583 95.6178 14.1096L21.2857 31.2705ZM77.0906 92.5143C76.4434 95.2728 74.4921 97.4374 71.977 98.8455C68.0532 100.754 63.9649 101.126 60.6082 100.037C59.5479 99.6819 58.55 99.1597 57.6298 98.5078C55.8485 97.2457 56.032 94.7021 57.5896 93.1724L59.6318 91.1667C60.0162 90.7892 60.4824 90.7756 60.8482 91.1712C61.9606 92.3299 62.8721 93.1217 64.3861 93.4757C65.8273 93.6232 68.8276 93.2374 69.4173 90.6251C69.833 89.2695 68.7255 85.4761 67.7436 81.223C66.5008 75.8423 65.2827 70.4748 64.059 65.1388C63.5689 63.0017 64.9009 60.8701 67.0373 60.3769C69.1737 59.8836 71.3054 61.2158 71.8018 63.3515C73.1655 69.2195 74.4982 74.897 75.81 80.7276C76.8303 85.0714 78.1024 88.8601 77.0906 92.5143ZM108.68 82.919C108.115 92.7385 93.1905 96.4987 85.7959 91.8045C85.4225 91.5383 85.0836 91.3034 84.7689 91.081C83.0819 89.8884 83.2955 87.5134 84.807 86.105C86.3645 84.6538 88.6652 84.8601 90.55 85.8498C91.7581 86.4841 93.0442 86.7832 94.6411 86.7483C98.5461 86.3353 102.066 84.1482 100.278 80.3123C98.6363 77.2212 91.5552 78.0119 86.0487 75.5723C80.5454 73.4724 77.6337 65.9547 80.5235 60.608C81.449 58.6635 83.3913 56.9235 85.5902 55.795L87.9542 54.9173C92.611 53.7426 95.8207 54.3031 98.5208 56.2046C100.118 57.2176 100.354 59.2066 99.0297 60.5578C97.5732 62.0444 94.7889 62.0562 92.7791 61.5156C92.483 61.436 92.1859 61.3825 91.8914 61.354C89.6702 61.2043 87.2102 62.4925 87.1735 64.8115C87.1443 65.4631 87.2927 66.0331 87.7348 66.9131C87.8308 67.1042 87.9428 67.2884 88.0878 67.4456C89.4674 68.9416 92.3216 69.1335 94.9822 69.6836C102.953 70.957 106.146 73.5583 107.622 77.1913C108.955 80.3049 108.718 82.579 108.68 82.919Z" fill="#F0DB4F"/>
</g>
<defs>
<filter id="filter0_df_101_157" x="0" y="0" width="122" height="120" filterUnits="userSpaceOnUse" color-interpolation-filters="sRGB">
<feFlood flood-opacity="0" result="BackgroundImageFix"/>
<feColorMatrix in="SourceAlpha" type="matrix" values="0 0 0 0 0 0 0 0 0 0 0 0 0 0 0 0 0 0 127 0" result="hardAlpha"/>
<feOffset dx="-8" dy="-4"/>
<feGaussianBlur stdDeviation="5"/>
<feComposite in2="hardAlpha" operator="out"/>
<feColorMatrix type="matrix" values="0 0 0 0 0 0 0 0 0 0 0 0 0 0 0 0 0 0 0.25 0"/>
<feBlend mode="normal" in2="BackgroundImageFix" result="effect1_dropShadow_101_157"/>
<feBlend mode="normal" in="SourceGraphic" in2="effect1_dropShadow_101_157" result="shape"/>
<feGaussianBlur stdDeviation="2" result="effect2_foregroundBlur_101_157"/>
</filter>
</defs>
</svg>
