<svg width="112" height="108" viewBox="0 0 112 108" fill="none" xmlns="http://www.w3.org/2000/svg">
<g filter="url(#filter0_df_101_167)">
<path d="M60.0916 63.1869C65.0952 62.0156 68.215 56.9528 67.0598 51.879C65.9047 46.8052 60.912 43.6417 55.9084 44.8131C50.9048 45.9844 47.785 51.0472 48.9402 56.121C50.0953 61.1948 55.088 64.3583 60.0916 63.1869Z" fill="#61DAFB"/>
<path d="M88.9622 30.7937C87.067 30.5583 85.0923 30.3415 83.0566 30.2239C83.0931 28.1782 83.0501 26.1511 82.946 24.2231C82.193 13.1949 78.6588 6.12824 72.9121 4.41782C71.2003 3.88486 69.4396 3.87263 67.5323 4.31915C61.9692 5.6215 55.8503 11.4679 50.294 20.1534C41.5452 14.8168 33.5181 12.2821 27.9551 13.5844C26.0477 14.031 24.4706 14.8246 23.1624 16.0646C18.7551 20.237 18.6335 28.1595 22.706 38.3257C23.4459 40.1048 24.2836 41.9459 25.2007 43.7683C23.4218 44.779 21.7224 45.771 20.1391 46.9056C11.0858 53.0994 6.89262 59.6833 8.25035 65.6467C9.60807 71.6102 16.3026 75.6452 27.0379 77.2064C28.933 77.4417 30.9077 77.6585 32.9434 77.7761C32.9069 79.8218 32.9499 81.8489 33.054 83.7769C33.807 94.8051 37.3412 101.872 43.0879 103.582C44.7997 104.115 46.5604 104.127 48.4677 103.681C54.1103 102.36 60.2292 96.5135 65.706 87.8466C74.4548 93.1832 82.4819 95.7179 88.0449 94.4156C89.9523 93.969 91.5294 93.1754 92.8376 91.9354C97.245 87.763 97.3665 79.8405 93.294 69.6743C92.5541 67.8952 91.7164 66.0541 90.7993 64.2317C92.5782 63.221 94.2776 62.229 95.8609 61.0944C104.914 54.9006 109.107 48.3167 107.75 42.3533C106.392 36.3898 99.7769 32.3362 88.9622 30.7937ZM71.6042 8.96812C75.3029 10.1394 77.7733 15.8424 78.3487 24.6203C78.4956 26.3685 78.5019 28.2344 78.4471 30.1995C74.0943 30.2 69.5766 30.5785 64.8755 31.2547C61.2927 28.0191 57.7222 25.205 54.2251 22.7133C58.7667 15.4536 63.8098 10.0289 68.6576 8.89401C69.6907 8.65214 70.6994 8.67065 71.6042 8.96812ZM73.5835 58.84C72.7401 61.7537 71.6583 64.7232 70.497 67.7113C67.6116 68.6415 64.6895 69.4104 61.6695 70.1174C58.5701 70.843 55.6113 71.4508 52.6952 71.8788C50.3597 69.7094 48.1832 67.5027 46.1655 65.2588C44.0501 62.9529 41.9958 60.5478 40.1187 58.1861C40.7848 55.2291 41.5915 52.1542 42.496 49.1413C43.3394 46.2277 44.4212 43.2582 45.5824 40.2701C48.4679 39.3399 51.39 38.571 54.4099 37.864C57.5094 37.1384 60.4682 36.5306 63.3842 36.1026C65.7198 38.272 67.8963 40.4787 69.9139 42.7226C72.0294 45.0285 74.0837 47.4336 75.9607 49.7953C75.2152 52.7709 74.4696 55.7466 73.5835 58.84ZM79.5742 54.6365C81.4084 57.1779 82.9859 59.6946 84.484 62.2299C81.9287 63.5072 79.1778 64.6605 76.2495 65.7704C76.8546 64.016 77.5208 62.1624 78.0097 60.2654C78.5781 58.3498 79.067 56.4529 79.5742 54.6365ZM64.2015 81.2384C61.8171 79.5897 59.4755 77.7612 57.1951 75.8335C59.0413 75.4861 60.8875 75.1388 62.7153 74.7109C64.5432 74.283 66.3527 73.7745 68.1622 73.266C66.9459 76.0123 65.6318 78.6967 64.2015 81.2384ZM46.6675 72.6109C43.5558 72.915 40.5847 73.1012 37.7359 73.0891C38.0046 70.2251 38.3161 67.1813 38.866 64.0816C40.1072 65.4887 41.3667 66.9764 42.6873 68.3649C44.0446 69.9145 45.3469 71.2224 46.6675 72.6109ZM36.4258 53.3635C34.5916 50.8221 33.0141 48.3054 31.5161 45.7701C34.0713 44.4928 36.8222 43.3395 39.7505 42.2296C39.1454 43.984 38.4792 45.8376 37.9903 47.7346C37.4219 49.6502 36.933 51.5471 36.4258 53.3635ZM51.7985 26.7616C54.1829 28.4103 56.5245 30.2388 58.8049 32.1665C56.9587 32.5139 55.1125 32.8612 53.2847 33.2891C51.4568 33.717 49.6473 34.2255 47.8378 34.734C49.0541 31.9877 50.3682 29.3033 51.7985 26.7616ZM73.2943 39.5545L69.3325 35.3891C72.4442 35.085 75.4153 34.8988 78.2641 34.9109C77.9954 37.7749 77.6839 40.8187 77.134 43.9184C75.8745 42.4307 74.615 40.943 73.2943 39.5545ZM27.0096 36.6391C23.7321 28.4938 23.487 22.2699 26.305 19.573C26.9897 18.9034 27.8883 18.4384 28.9214 18.1965C33.6898 17.0802 40.5492 19.6336 47.8674 24.2017C45.783 27.9152 43.8088 32.1122 41.9874 36.6129C37.4698 38.095 33.2639 39.8435 29.3332 41.6974C28.4344 39.9556 27.7128 38.2571 27.0096 36.6391ZM12.7008 64.6049C11.8385 60.8173 15.451 55.7274 22.7194 50.8852C24.162 49.8684 25.782 48.895 27.4203 48.0021C29.6092 51.7338 32.1711 55.6328 35.0509 59.4574C34.1159 64.1751 33.4011 68.7563 33.1264 73.0647C21.4253 72.4087 13.7283 69.1177 12.7008 64.6049ZM44.3958 99.0319C40.6971 97.8606 38.2267 92.1576 37.6513 83.3797C37.5044 81.6315 37.4981 79.7656 37.5529 77.8005C41.9057 77.8 46.4234 77.4215 51.1245 76.7453C54.7073 79.9809 58.2778 82.795 61.7749 85.2867C57.2333 92.5464 52.1902 97.9711 47.3424 99.106C46.3093 99.3479 45.3006 99.3294 44.3958 99.0319ZM88.9904 71.3609C92.2679 79.5062 92.513 85.7301 89.695 88.427C89.0103 89.0966 88.1117 89.5616 87.0786 89.8035C82.3102 90.9198 75.4508 88.3664 68.1326 83.7983C70.217 80.0848 72.1912 75.8878 74.0126 71.3871C78.5302 69.9051 82.7361 68.1565 86.6668 66.3026C87.5656 68.0444 88.2872 69.7429 88.9904 71.3609ZM93.2806 57.1148C91.838 58.1316 90.218 59.105 88.5797 59.9979C86.3908 56.2662 83.8289 52.3672 80.9491 48.5426C81.8841 43.8249 82.5989 39.2437 82.8736 34.9353C94.5747 35.5913 102.272 38.8823 103.299 43.3951C104.162 47.1827 100.47 52.2912 93.2806 57.1148Z" fill="#61DAFB"/>
</g>
<defs>
<filter id="filter0_df_101_167" x="0" y="0" width="112" height="108" filterUnits="userSpaceOnUse" color-interpolation-filters="sRGB">
<feFlood flood-opacity="0" result="BackgroundImageFix"/>
<feColorMatrix in="SourceAlpha" type="matrix" values="0 0 0 0 0 0 0 0 0 0 0 0 0 0 0 0 0 0 127 0" result="hardAlpha"/>
<feOffset dx="-8" dy="4"/>
<feComposite in2="hardAlpha" operator="out"/>
<feColorMatrix type="matrix" values="0 0 0 0 0 0 0 0 0 0 0 0 0 0 0 0 0 0 0.25 0"/>
<feBlend mode="normal" in2="BackgroundImageFix" result="effect1_dropShadow_101_167"/>
<feBlend mode="normal" in="SourceGraphic" in2="effect1_dropShadow_101_167" result="shape"/>
<feGaussianBlur stdDeviation="2" result="effect2_foregroundBlur_101_167"/>
</filter>
</defs>
</svg>
