<svg width="100" height="100" viewBox="0 0 100 100" fill="none" xmlns="http://www.w3.org/2000/svg">
<path d="M100 50C100 77.6142 77.6142 100 50 100C22.3858 100 0 77.6142 0 50C0 22.3858 22.3858 0 50 0C77.6142 0 100 22.3858 100 50Z" fill="white"/>
<path d="M50 0C22.3858 0 0 22.3858 0 50C0 77.613 22.385 100 50 100C77.6142 100 100 77.613 100 50C100 22.3858 77.6142 0 50 0ZM61.218 17.2186C61.6561 16.4596 62.2395 15.7943 62.9347 15.2607C63.63 14.7272 64.4235 14.3357 65.27 14.1088C66.1165 13.882 66.9994 13.824 67.8683 13.9383C68.7372 14.0527 69.5751 14.337 70.3341 14.7752C71.0931 15.2133 71.7584 15.7967 72.292 16.4919C72.8256 17.1872 73.217 17.9807 73.4438 18.8272C73.6707 19.6738 73.7287 20.5567 73.6143 21.4256C73.5 22.2945 73.2157 23.1324 72.7775 23.8914C72.3396 24.6506 71.7563 25.3161 71.061 25.8498C70.3658 26.3834 69.5721 26.7748 68.7255 27.0016C67.8789 27.2284 66.9959 27.2861 66.127 27.1714C65.258 27.0567 64.4202 26.7719 63.6614 26.3332C62.1291 25.4482 61.011 23.991 60.5528 22.2818C60.0946 20.5726 60.3339 18.7514 61.218 17.2186ZM50 21.0003C52.6846 21.0003 55.281 21.3731 57.7475 22.0545C57.9681 23.428 58.4925 24.7348 59.2824 25.8798C60.0723 27.0249 61.1078 27.9791 62.3134 28.673C63.5158 29.368 64.8577 29.7868 66.242 29.8991C67.6262 30.0114 69.0181 29.8144 70.3168 29.3224C75.2531 34.1764 78.4651 40.7776 78.9334 48.131L69.4214 48.2709C68.5433 38.3102 60.186 30.5001 50 30.5001C47.1627 30.4972 44.3592 31.1161 41.7867 32.3131L37.1476 24.0017C41.1428 22.0232 45.5417 20.996 50 21.0003ZM16.002 56.6761C15.1252 56.6762 14.257 56.5036 13.4469 56.1682C12.6369 55.8327 11.9008 55.341 11.2808 54.721C10.6608 54.1011 10.169 53.3651 9.83342 52.555C9.49786 51.745 9.32516 50.8768 9.32516 50C9.32494 49.1231 9.4975 48.2548 9.83296 47.4446C10.1684 46.6344 10.6602 45.8983 11.2803 45.2782C11.9003 44.6582 12.6364 44.1664 13.4466 43.8309C14.2568 43.4954 15.1251 43.3229 16.002 43.3231C17.7598 43.3426 19.4391 44.0546 20.6752 45.3046C21.9114 46.5545 22.6047 48.2416 22.6047 49.9996C22.6047 51.7576 21.9114 53.4446 20.6752 54.6946C19.4391 55.9446 17.7598 56.6566 16.002 56.6761ZM21.92 57.2703C23.0005 56.3918 23.8715 55.2833 24.4695 54.0256C25.0674 52.7679 25.3773 51.3926 25.3765 50C25.3765 47.066 24.0277 44.4473 21.92 42.7281C23.7256 35.7417 28.0718 29.7758 33.9116 25.8707L38.7927 34.0463C33.7791 37.5745 30.502 43.4029 30.502 50C30.502 56.5971 33.7783 62.4255 38.7927 65.952L33.9116 74.1301C28.0693 70.2258 23.7231 64.2583 21.92 57.2703ZM70.3366 85.2224C69.5777 85.661 68.7398 85.9457 67.8708 86.0602C67.0018 86.1748 66.1188 86.117 65.2721 85.89C64.4255 85.6631 63.6319 85.2715 62.9367 84.7377C62.2415 84.2039 61.6583 83.5383 61.2205 82.7789C59.3762 79.5882 60.4707 75.5078 63.6639 73.6635C66.8546 71.8208 70.9374 72.9162 72.78 76.1069C73.2184 76.8658 73.5029 77.7037 73.6173 78.5726C73.7317 79.4415 73.6738 80.3244 73.4469 81.1709C73.22 82.0174 72.8285 82.811 72.2949 83.5061C71.7612 84.2013 71.0957 84.7845 70.3366 85.2224ZM70.3168 70.6777C69.0184 70.1842 67.6264 69.9865 66.2419 70.0986C64.8575 70.2108 63.5154 70.6302 62.3134 71.3262C61.1081 72.0203 60.0728 72.9746 59.2831 74.1196C58.4933 75.2646 57.969 76.5714 57.7483 77.9447C55.2251 78.6452 52.6186 79.0007 50 79.0014C45.5418 79.0056 41.1431 77.9777 37.1484 75.9983L41.7867 67.6861C44.3591 68.8834 47.1626 69.5025 50 69.5C60.1868 69.5 68.5433 61.6914 69.419 51.7299L78.9334 51.869C78.4651 59.2224 75.2531 65.8236 70.3168 70.6777Z" fill="#DD4814"/>
</svg>
