<svg width="40" height="40" viewBox="0 0 40 40" fill="none" xmlns="http://www.w3.org/2000/svg">
<mask id="mask0_148_102" style="mask-type:luminance" maskUnits="userSpaceOnUse" x="0" y="0" width="40" height="40">
<path d="M20 40C31.0457 40 40 31.0457 40 20C40 8.9543 31.0457 0 20 0C8.9543 0 0 8.9543 0 20C0 31.0457 8.9543 40 20 40Z" fill="white"/>
</mask>
<g mask="url(#mask0_148_102)">
<path d="M-14.81 41.31H-14.88V41C-14.88 27 -14.88 13 -14.88 -1.00001C-14.88 -1.26001 -14.82 -1.31001 -14.57 -1.31001H65.78C65.88 -1.31001 66.01 -1.39001 66.08 -1.25001C65.9828 -1.17509 65.8626 -1.13621 65.74 -1.14001H17.55C17.35 -1.14001 17.15 -1.14001 16.94 -1.14001H-14C-14.74 -1.14001 -14.67 -1.14001 -14.67 -0.460008V21C-14.67 21.58 -14.67 21.58 -14.07 21.58H65.37C65.6112 21.5323 65.8614 21.5675 66.08 21.68V25C65.9728 25.0853 65.8362 25.1248 65.7 25.11H-13.91C-14.79 25.11 -14.7 25.05 -14.7 25.91C-14.7 26.5433 -14.7 27.1733 -14.7 27.8C-14.7 28.14 -14.7 28.18 -14.31 28.19H65.33C65.59 28.19 65.85 28.12 66.08 28.29V31.52C65.9728 31.6053 65.8362 31.6448 65.7 31.63C65.53 31.63 65.37 31.63 65.2 31.63H-13.91C-14.79 31.63 -14.7 31.57 -14.7 32.43C-14.7 33.0633 -14.7 33.6933 -14.7 34.32C-14.7 34.66 -14.7 34.7 -14.31 34.71H65.33C65.59 34.71 65.85 34.64 66.08 34.81V38C65.9696 38.0781 65.8346 38.1136 65.7 38.1C65.53 38.1 65.37 38.1 65.2 38.1H-13.93C-14.78 38.1 -14.7 38.04 -14.7 38.85C-14.7 39.5 -14.7 40.15 -14.7 40.8C-14.6833 40.888 -14.6844 40.9785 -14.7033 41.0661C-14.7222 41.1537 -14.7585 41.2367 -14.81 41.31Z" fill="white"/>
<path d="M-14.81 41.31C-14.81 40.31 -14.81 39.31 -14.81 38.31C-14.81 38.1 -14.76 37.99 -14.53 38.03H65.61H66.08C66.08 39.03 66.08 40.09 66.08 41.12C66.08 41.29 66.08 41.36 65.87 41.33H-14.81V41.31Z" fill="#B32335"/>
<path d="M66.08 34.78H-14.37C-14.81 34.78 -14.81 34.78 -14.81 34.34C-14.81 33.48 -14.81 32.63 -14.81 31.78C-14.81 31.56 -14.76 31.47 -14.53 31.5C-14.4401 31.505 -14.3499 31.505 -14.26 31.5H66.08V34.78Z" fill="#B32335"/>
<path d="M66.08 28.25C65.9281 28.2201 65.7719 28.2201 65.62 28.25H-14.38C-14.82 28.25 -14.82 28.25 -14.82 27.81C-14.82 26.96 -14.82 26.11 -14.82 25.25C-14.82 25.03 -14.76 24.95 -14.54 24.98C-14.5069 24.9849 -14.4732 24.9849 -14.44 24.98H66.08V28.25Z" fill="#B32335"/>
<path d="M17.55 -1.22998H66.08V2.07002C65.9828 2.14494 65.8627 2.18382 65.74 2.18002H18.27C18.0239 2.21928 17.7718 2.19165 17.54 2.10002C17.4575 1.97652 17.422 1.82748 17.44 1.68002C17.44 0.853353 17.44 0.0233529 17.44 -0.80998C17.427 -0.883779 17.4301 -0.959518 17.4491 -1.03201C17.4681 -1.1045 17.5025 -1.17203 17.55 -1.22998Z" fill="#B32335"/>
<path d="M66.08 11.82V15.12C65.9828 15.1949 65.8626 15.2338 65.74 15.23H18.27C18.0239 15.2692 17.7717 15.2416 17.54 15.15C17.4638 15.05 17.4281 14.9251 17.44 14.8C17.44 13.92 17.44 13.04 17.44 12.16C17.4289 12.0364 17.4607 11.9129 17.53 11.81C17.6985 11.7205 17.8917 11.6889 18.08 11.72H65.37C65.6111 11.6723 65.8613 11.7075 66.08 11.82Z" fill="#B32335"/>
<path d="M66.08 5.28999V8.58999C65.9828 8.66491 65.8627 8.70379 65.74 8.69999H18.27C18.0239 8.73925 17.7718 8.71162 17.54 8.61999C17.4639 8.52003 17.4282 8.39508 17.44 8.26999C17.44 7.38999 17.44 6.50999 17.44 5.62999C17.4281 5.50638 17.4599 5.38251 17.53 5.27999C17.6976 5.18776 17.8907 5.15266 18.08 5.17999H65.37C65.61 5.18999 65.86 5.11999 66.08 5.28999Z" fill="#B32335"/>
<path d="M17.56 15.12H66.08V18.42C65.9828 18.4949 65.8627 18.5338 65.74 18.53H18.27C18.0239 18.5693 17.7718 18.5416 17.54 18.45C17.4545 18.3165 17.4191 18.1571 17.44 18C17.44 17.19 17.44 16.37 17.44 15.56C17.4245 15.4824 17.4273 15.4022 17.4481 15.3258C17.4689 15.2495 17.5072 15.179 17.56 15.12Z" fill="white"/>
<path d="M17.56 18.41H66.08V21.64H65.75H17.54C17.4581 21.5199 17.4226 21.3742 17.44 21.23C17.44 20.42 17.44 19.6 17.44 18.79C17.4302 18.7217 17.4359 18.6521 17.4567 18.5863C17.4775 18.5205 17.5128 18.4603 17.56 18.41Z" fill="#B32335"/>
<path d="M66.08 5.28997H17.56C17.5092 5.23796 17.4717 5.1744 17.4508 5.10473C17.4299 5.03507 17.4262 4.96138 17.44 4.88997C17.44 4.06997 17.44 3.24997 17.44 2.42997C17.427 2.35856 17.4311 2.28509 17.452 2.21557C17.4729 2.14605 17.5099 2.08245 17.56 2.02997H65.65H66.08V5.28997Z" fill="white"/>
<path d="M17.56 8.58002H66.08V11.81H65.75H17.56C17.5099 11.7575 17.4729 11.6939 17.452 11.6244C17.4312 11.5549 17.4271 11.4814 17.44 11.41C17.44 10.59 17.44 9.77002 17.44 8.95002C17.4325 8.88335 17.4393 8.81584 17.46 8.75202C17.4806 8.6882 17.5148 8.62955 17.56 8.58002Z" fill="white"/>
<path d="M17.56 8.57997V18.41C17.56 19.49 17.56 20.57 17.56 21.66H17.2H-14.43C-14.73 21.66 -14.82 21.6 -14.82 21.28C-14.82 13.88 -14.82 6.47664 -14.82 -0.930029C-14.82 -1.22003 -14.74 -1.28003 -14.47 -1.28003H17.53C17.53 -0.190029 17.53 0.899971 17.53 1.98997V8.57997H17.56Z" fill="#3C3C6F"/>
<path d="M14.83 18.13C15.01 18.43 14.96 18.81 15.18 18.93C15.4 19.05 15.72 18.93 16.02 19.03C15.8918 19.1411 15.7547 19.2415 15.61 19.33C15.5568 19.3464 15.5083 19.3753 15.4685 19.4142C15.4287 19.4531 15.3988 19.501 15.3812 19.5537C15.3636 19.6065 15.3588 19.6628 15.3673 19.7178C15.3758 19.7728 15.3973 19.825 15.43 19.87C15.5015 20.0381 15.5584 20.2121 15.6 20.39C15.29 20.26 15.1 19.92 14.83 19.94C14.56 19.96 14.37 20.23 14.13 20.4C14.1256 20.246 14.1637 20.0938 14.24 19.96C14.2834 19.903 14.3123 19.8362 14.324 19.7655C14.3358 19.6947 14.3301 19.6222 14.3074 19.5542C14.2847 19.4862 14.2458 19.4247 14.194 19.3752C14.1421 19.3257 14.079 19.2896 14.01 19.27C13.8665 19.1797 13.7294 19.0795 13.6 18.97C13.833 18.9542 14.0669 18.9542 14.3 18.97C14.3398 18.9788 14.381 18.9788 14.4208 18.97C14.4606 18.9612 14.498 18.9438 14.5304 18.919C14.5628 18.8942 14.5893 18.8627 14.6083 18.8266C14.6272 18.7905 14.638 18.7507 14.64 18.71C14.69 18.54 14.76 18.36 14.83 18.13Z" fill="#FEFEFE"/>
<path d="M8.25 19C8.59 19 8.93 19.07 9.12 18.93C9.31 18.79 9.34 18.45 9.43 18.19H9.5C9.58 18.86 9.94 19.13 10.65 18.91V19.01C10.4899 19.1389 10.323 19.259 10.15 19.37C10.1151 19.3848 10.0838 19.4068 10.058 19.4346C10.0322 19.4623 10.0126 19.4952 10.0003 19.531C9.98804 19.5669 9.98346 19.6049 9.98685 19.6426C9.99025 19.6803 10.0015 19.7169 10.02 19.75C10.1 19.94 10.15 20.13 10.24 20.4L9.9 20.17C9.48 19.87 9.48 19.87 9.04 20.17L8.77 20.35C8.77 20.28 8.77 20.23 8.77 20.18C8.98 19.51 8.98 19.51 8.4 19.08L8.25 19Z" fill="#FEFEFE"/>
<path d="M2.83002 19C3.52002 19 4.00002 19 4.00002 18.19C4.12002 18.19 4.12002 18.19 4.14002 18.27C4.38002 18.96 4.38002 18.96 5.14002 18.97H5.38002C5.17002 19.12 5.05002 19.23 4.91002 19.31C4.77002 19.39 4.56002 19.62 4.71002 19.9C4.7782 20.0581 4.83175 20.2221 4.87002 20.39C4.57002 20.26 4.37002 19.92 4.11002 19.94C3.85002 19.96 3.65002 20.23 3.40002 20.4C3.38514 20.2646 3.40226 20.1276 3.45002 20C3.49347 19.943 3.52233 19.8762 3.53409 19.8055C3.54584 19.7347 3.54013 19.6622 3.51746 19.5942C3.49479 19.5262 3.45584 19.4647 3.404 19.4152C3.35216 19.3657 3.289 19.3296 3.22002 19.31C3.08336 19.2153 2.95308 19.1118 2.83002 19Z" fill="#FEFEFE"/>
<path d="M0.200012 16.74C0.870012 16.79 1.31001 16.61 1.31001 15.88H1.40001C1.49001 16.52 1.82001 16.88 2.59001 16.59C2.44782 16.7854 2.2632 16.9461 2.05001 17.06C2.01203 17.0755 1.97792 17.0992 1.9501 17.1294C1.92228 17.1595 1.90143 17.1955 1.88903 17.2346C1.87662 17.2737 1.87297 17.3151 1.87832 17.3557C1.88368 17.3964 1.89791 17.4354 1.92001 17.47C2.00001 17.65 2.04001 17.85 2.13001 18.12C1.95299 18.003 1.78272 17.8762 1.62001 17.74C1.59017 17.7006 1.55162 17.6687 1.50738 17.6467C1.46314 17.6248 1.41441 17.6133 1.36501 17.6133C1.31561 17.6133 1.26689 17.6248 1.22265 17.6467C1.17841 17.6687 1.13986 17.7006 1.11001 17.74C0.944313 17.8737 0.770661 17.9973 0.590012 18.11C0.690012 17.84 0.740012 17.64 0.810012 17.46C0.832114 17.4254 0.846345 17.3864 0.8517 17.3457C0.857055 17.3051 0.853401 17.2637 0.840999 17.2246C0.828596 17.1855 0.807747 17.1495 0.779928 17.1194C0.752108 17.0892 0.717998 17.0655 0.680012 17.05C0.514594 16.9553 0.354365 16.8518 0.200012 16.74Z" fill="#FEFEFE"/>
<path d="M15.6 15.84C15.09 15.38 14.6 15.16 14.13 15.93C14.1376 15.681 14.1954 15.4361 14.3 15.21C14.3201 15.1743 14.3325 15.1349 14.3363 15.0941C14.3401 15.0534 14.3352 15.0123 14.322 14.9736C14.3087 14.9348 14.2875 14.8993 14.2595 14.8694C14.2316 14.8395 14.1977 14.8158 14.16 14.8C13.9665 14.6729 13.7796 14.536 13.6 14.39C13.89 14.39 14.09 14.39 14.28 14.39C14.47 14.39 14.6 14.33 14.65 14.12C14.6975 13.9405 14.7543 13.7636 14.82 13.59C14.82 13.59 14.89 13.59 14.9 13.64C14.98 14.3 15.33 14.56 16.02 14.35C16.02 14.54 15.85 14.57 15.76 14.64C15.33 14.96 15.33 14.95 15.5 15.48C15.53 15.58 15.56 15.67 15.6 15.84Z" fill="#FEFEFE"/>
<path d="M9.42002 13.6C9.59002 14.25 9.90002 14.6 10.66 14.34V14.45C10.49 14.57 10.34 14.7 10.16 14.81C10.1241 14.8235 10.0915 14.8447 10.0648 14.8723C10.038 14.8998 10.0177 14.9329 10.0053 14.9693C9.99285 15.0056 9.98862 15.0442 9.9929 15.0824C9.99718 15.1206 10.0099 15.1573 10.03 15.19C10.11 15.38 10.16 15.57 10.25 15.85C10.0967 15.7527 9.94975 15.6459 9.81002 15.53C9.77299 15.4784 9.72419 15.4363 9.66768 15.4073C9.61116 15.3783 9.54855 15.3632 9.48502 15.3632C9.4215 15.3632 9.35888 15.3783 9.30237 15.4073C9.24585 15.4363 9.19706 15.4784 9.16002 15.53C9.05002 15.63 8.91002 15.71 8.73002 15.84L8.85002 15.43C9.00002 15 9.00002 15 8.56002 14.65L8.21002 14.39H8.91002C9.10002 14.39 9.20002 14.39 9.24002 14.16C9.28002 13.93 9.36002 13.78 9.42002 13.6Z" fill="#FEFEFE"/>
<path d="M3.99997 13.6C4.16997 14.25 4.46997 14.6 5.24997 14.32V14.44C5.10437 14.5708 4.94704 14.688 4.77997 14.79C4.7391 14.8065 4.70238 14.8319 4.67243 14.8642C4.64247 14.8965 4.62001 14.9351 4.60664 14.9771C4.59328 15.0191 4.58933 15.0635 4.59509 15.1073C4.60085 15.151 4.61617 15.1929 4.63997 15.23C4.72077 15.4328 4.79086 15.6398 4.84997 15.85C4.61997 15.69 4.44997 15.58 4.28997 15.45C4.26557 15.4206 4.235 15.397 4.20043 15.3807C4.16587 15.3645 4.12815 15.3561 4.08997 15.3561C4.05178 15.3561 4.01407 15.3645 3.9795 15.3807C3.94493 15.397 3.91436 15.4206 3.88997 15.45C3.72656 15.5822 3.55633 15.7057 3.37997 15.82C3.37997 15.72 3.37997 15.67 3.37997 15.6C3.56997 14.97 3.56997 14.97 3.01997 14.6L2.83997 14.44C3.10997 14.44 3.31997 14.44 3.51997 14.44C3.71997 14.44 3.80997 14.39 3.84997 14.21C3.88997 14.03 3.99997 13.78 3.99997 13.6Z" fill="#FEFEFE"/>
<path d="M7.49999 18.07C6.99999 17.53 6.49999 17.55 6.04999 18.16V18.07C6.11999 17.88 6.16999 17.67 6.24999 17.48C6.2704 17.448 6.28354 17.4118 6.28849 17.3742C6.29344 17.3365 6.29008 17.2982 6.27864 17.262C6.2672 17.2258 6.24796 17.1925 6.22228 17.1645C6.1966 17.1365 6.1651 17.1145 6.12999 17.1C5.92973 16.9698 5.73615 16.8296 5.54999 16.68C5.77304 16.6641 5.99694 16.6641 6.21999 16.68C6.45999 16.68 6.54999 16.6 6.59999 16.38C6.64764 16.2104 6.70439 16.0435 6.76999 15.88C6.85999 15.88 6.85999 15.95 6.86999 16C7.09999 16.66 7.09999 16.66 7.86999 16.67H7.99999C7.74999 16.86 7.57999 16.99 7.39999 17.11C7.21999 17.23 7.21999 17.28 7.28999 17.44C7.35999 17.6 7.42999 17.87 7.49999 18.07Z" fill="#FEFEFE"/>
<path d="M12.08 15.85L12.19 15.91C12.28 16.56 12.61 16.91 13.34 16.63V16.74C13.1832 16.8655 13.0196 16.9824 12.85 17.09C12.8117 17.1066 12.7775 17.1313 12.7497 17.1624C12.7218 17.1935 12.701 17.2303 12.6887 17.2702C12.6763 17.31 12.6727 17.3521 12.6781 17.3935C12.6836 17.4349 12.6978 17.4746 12.72 17.51C12.79 17.69 12.84 17.88 12.91 18.08H12.85C12.6 17.95 12.41 17.62 12.16 17.65C11.91 17.68 11.69 17.93 11.46 18.09C11.46 18.09 11.46 18.04 11.46 18.03C11.8 17.44 11.67 17.03 11.01 16.76C11.01 16.7 11.01 16.69 11.07 16.69C11.65 16.79 12.1 16.63 12.08 15.85Z" fill="#FEFEFE"/>
<path d="M12.86 13.59C12.39 12.93 11.91 12.98 11.41 13.49C11.4661 13.2899 11.5329 13.093 11.61 12.9C11.6286 12.8662 11.64 12.8288 11.6435 12.7904C11.647 12.7519 11.6425 12.7132 11.6303 12.6766C11.6181 12.6399 11.5984 12.6062 11.5726 12.5776C11.5467 12.5489 11.5152 12.5259 11.48 12.51C11.31 12.41 11.15 12.28 10.9 12.1H11.61C11.6471 12.1105 11.6859 12.1126 11.7239 12.1062C11.7618 12.0998 11.7979 12.0851 11.8295 12.0631C11.861 12.0411 11.8873 12.0124 11.9065 11.979C11.9256 11.9456 11.937 11.9084 11.94 11.87C11.94 11.68 12.06 11.49 12.12 11.3H12.19C12.28 11.96 12.63 12.24 13.34 12.02V12.12C13.1893 12.2413 13.0324 12.3548 12.87 12.46C12.8292 12.4765 12.7924 12.5019 12.7625 12.5342C12.7325 12.5666 12.7101 12.6051 12.6967 12.6471C12.6833 12.6891 12.6794 12.7336 12.6852 12.7773C12.6909 12.821 12.7062 12.8629 12.73 12.9C12.8005 13.0729 12.8606 13.2499 12.91 13.43L12.86 13.59Z" fill="#FEFEFE"/>
<path d="M8.00001 12.17C7.25001 12.43 7.14001 12.89 7.52001 13.55C7.01001 12.96 6.52001 12.96 6.08001 13.55C6.07499 13.5102 6.07499 13.4698 6.08001 13.43C6.14001 13.16 6.38001 12.89 6.27001 12.65C6.16001 12.41 5.87001 12.32 5.57001 12.09C5.78972 12.0742 6.01029 12.0742 6.23001 12.09C6.47001 12.09 6.56001 12.01 6.61001 11.79C6.66001 11.57 6.72001 11.46 6.79001 11.25C6.89433 11.3744 6.95725 11.5282 6.97001 11.69C6.97146 11.7555 6.98823 11.8198 7.01895 11.8776C7.04968 11.9355 7.09352 11.9854 7.14696 12.0233C7.20041 12.0612 7.26198 12.086 7.32676 12.0959C7.39153 12.1057 7.45771 12.1003 7.52001 12.08C7.66317 12.07 7.80685 12.07 7.95001 12.08L8.00001 12.17Z" fill="#FEFEFE"/>
<path d="M2.11 13.49C2.02752 13.3683 1.9165 13.2687 1.78663 13.1998C1.65676 13.131 1.51199 13.0949 1.365 13.0949C1.218 13.0949 1.07323 13.131 0.943365 13.1998C0.813495 13.2687 0.70247 13.3683 0.619995 13.49C0.689995 13.29 0.739995 13.09 0.819995 12.9C0.840161 12.8673 0.852838 12.8306 0.857116 12.7924C0.861394 12.7543 0.857167 12.7156 0.844737 12.6793C0.832308 12.643 0.811986 12.6098 0.78523 12.5823C0.758475 12.5548 0.725951 12.5335 0.689995 12.52C0.519995 12.42 0.369995 12.28 0.119995 12.1C0.399995 12.1 0.599995 12.1 0.789995 12.1C0.831684 12.1121 0.875549 12.1146 0.918355 12.1075C0.961161 12.1003 1.00182 12.0836 1.03732 12.0587C1.07283 12.0337 1.10229 12.0011 1.12352 11.9633C1.14475 11.9254 1.15722 11.8833 1.16 11.84C1.2061 11.6601 1.26286 11.4831 1.33 11.31C1.43 11.31 1.42 11.38 1.44 11.43C1.67 12.09 1.67 12.09 2.44 12.1H2.67C2.41 12.29 2.25 12.42 2.06 12.54C2.03054 12.5538 2.0042 12.5735 1.98257 12.5978C1.96095 12.6221 1.94449 12.6505 1.9342 12.6814C1.92391 12.7123 1.92001 12.7449 1.92272 12.7773C1.92544 12.8097 1.93472 12.8413 1.95 12.87C2 13.07 2 13.28 2.11 13.49Z" fill="#FEFEFE"/>
<path d="M2.87 9.87999L2.93 9.80999C3.55 9.90999 4 9.75999 4 8.92999C4.14679 9.10312 4.24054 9.31492 4.27 9.53999C4.33 9.75999 4.43 9.83999 4.65 9.80999C4.87 9.77999 5.03 9.80999 5.33 9.80999C5.09 9.97999 4.93 10.11 4.76 10.22C4.72201 10.2355 4.6879 10.2592 4.66008 10.2894C4.63226 10.3195 4.61141 10.3554 4.59901 10.3946C4.58661 10.4337 4.58295 10.475 4.58831 10.5157C4.59366 10.5564 4.60789 10.5954 4.63 10.63C4.7 10.81 4.75 11.01 4.82 11.2C4.82 11.2 4.82 11.2 4.76 11.2C4.29 10.76 3.83 10.62 3.39 11.27C3.39 11.19 3.39 11.17 3.39 11.16C3.67 10.56 3.54 10.12 2.87 9.87999Z" fill="#FEFEFE"/>
<path d="M10.22 11.27C9.68998 10.78 9.21998 10.59 8.78998 11.27C8.78998 11.2 8.71998 11.19 8.72998 11.17C8.72998 10.9 9.01998 10.62 8.91998 10.39C8.81998 10.16 8.50998 10.04 8.28998 9.87H8.34998C8.99998 10 9.37998 9.69 9.39998 9C9.46998 9 9.49998 9 9.49998 9.07C9.57998 9.73 9.93998 9.99 10.67 9.76C10.5336 9.95442 10.3516 10.1124 10.14 10.22C9.97998 10.33 9.91998 10.44 10.01 10.63C10.1 10.82 10.13 11 10.22 11.27Z" fill="#FEFEFE"/>
<path d="M13.35 7.52001C13.11 7.78001 12.73 7.86001 12.68 8.12001C12.63 8.38001 12.81 8.64001 12.89 8.92001H12.84C12.37 8.47001 11.91 8.34001 11.47 8.99001C11.47 8.91001 11.42 8.89001 11.42 8.88001C11.76 8.29001 11.64 7.88001 10.96 7.60001C10.96 7.60001 11.02 7.53001 11.03 7.54001C11.65 7.63001 12.1 7.47001 12.08 6.64001C12.2261 6.8213 12.3195 7.03924 12.35 7.27001C12.41 7.48001 12.51 7.56001 12.73 7.53001C12.95 7.50001 13.11 7.52001 13.35 7.52001Z" fill="#FEFEFE"/>
<path d="M5.99999 8.99998C6.38999 8.31998 6.24999 7.87998 5.54999 7.61998C5.60999 7.61998 5.62999 7.54998 5.64999 7.54998C6.29999 7.68998 6.64999 7.42998 6.64999 6.72998C6.71999 6.72998 6.73999 6.72998 6.74999 6.79998C6.84999 7.03998 6.81999 7.39998 7.03999 7.50998C7.32042 7.56736 7.60956 7.56736 7.88999 7.50998C7.75162 7.67792 7.58177 7.81719 7.38999 7.91998C7.35227 7.93585 7.31834 7.95952 7.29042 7.98944C7.2625 8.01936 7.24123 8.05485 7.22801 8.09357C7.21479 8.1323 7.20991 8.17338 7.2137 8.21413C7.21748 8.25487 7.22985 8.29436 7.24999 8.32998C7.32378 8.51973 7.38721 8.71335 7.43999 8.90998H7.41999C7.34041 8.78951 7.23044 8.69219 7.10119 8.62785C6.97194 8.56351 6.828 8.53444 6.68391 8.54357C6.53983 8.55271 6.4007 8.59972 6.28061 8.67986C6.16052 8.76 6.06372 8.87043 5.99999 8.99998Z" fill="#FEFEFE"/>
<path d="M2.11 8.91C2.02908 8.78621 1.9186 8.68452 1.78853 8.61414C1.65845 8.54376 1.51289 8.50691 1.365 8.50691C1.2171 8.50691 1.07154 8.54376 0.941465 8.61414C0.811391 8.68452 0.700905 8.78621 0.619995 8.91C0.689995 8.71 0.739995 8.51 0.819995 8.32C0.838919 8.28679 0.85084 8.25005 0.855025 8.21205C0.859209 8.17405 0.855568 8.1356 0.844325 8.09906C0.833083 8.06252 0.814477 8.02867 0.789654 7.9996C0.764832 7.97052 0.734319 7.94684 0.699995 7.93C0.499517 7.80374 0.305909 7.66688 0.119995 7.52C0.399995 7.52 0.589995 7.52 0.779995 7.52C0.969995 7.52 1.12 7.45 1.17 7.23C1.22 7.01 1.28 6.89 1.37 6.63C1.42273 6.74983 1.46619 6.87353 1.5 7C1.55 7.42 1.78 7.56 2.18 7.48C2.32314 7.46972 2.46685 7.46972 2.61 7.48C2.36 7.7 2.2 7.84 2 8C1.96967 8.01288 1.94233 8.03185 1.91966 8.05575C1.89699 8.07964 1.87948 8.10795 1.86822 8.13891C1.85697 8.16986 1.8522 8.2028 1.85423 8.23568C1.85625 8.26856 1.86502 8.30066 1.88 8.33C2 8.49 2 8.7 2.11 8.91Z" fill="#FEFEFE"/>
<path d="M13.71 9.80998C14.34 9.90998 14.79 9.74998 14.79 8.97998C14.87 8.97998 14.9 9.03998 14.9 9.05998C14.98 9.71998 15.33 9.97998 16.06 9.74998C15.9245 9.94138 15.7465 10.0988 15.54 10.21C15.5023 10.2259 15.4684 10.2495 15.4405 10.2794C15.4125 10.3094 15.3913 10.3448 15.378 10.3836C15.3648 10.4223 15.3599 10.4634 15.3637 10.5041C15.3675 10.5449 15.3799 10.5844 15.4 10.62C15.48 10.8 15.53 11 15.62 11.27C15.4219 11.145 15.2315 11.0081 15.05 10.86C15.0256 10.8306 14.9951 10.807 14.9605 10.7907C14.9259 10.7745 14.8882 10.7661 14.85 10.7661C14.8118 10.7661 14.7741 10.7745 14.7396 10.7907C14.705 10.807 14.6744 10.8306 14.65 10.86C14.4933 10.9888 14.3298 11.1089 14.16 11.22V11.16C14.45 10.63 14.42 10.16 13.79 9.91998C13.72 9.89998 13.67 9.86998 13.71 9.80998Z" fill="#FEFEFE"/>
<path d="M14.87 4.43998C14.96 4.69998 15 5.04998 15.18 5.17998C15.36 5.30998 15.72 5.17998 16.03 5.27998C15.8698 5.40562 15.7029 5.52245 15.53 5.62998C15.466 5.66418 15.4171 5.72116 15.393 5.78967C15.3689 5.85818 15.3714 5.93323 15.4 5.99998C15.4738 6.18973 15.5372 6.38335 15.59 6.57998H15.51C15.06 6.10998 14.6 6.03998 14.19 6.57998L14.12 6.50998C14.42 5.91998 14.39 5.44998 13.64 5.22998L13.73 5.14998C14.37 5.25998 14.79 5.06998 14.73 4.28998L14.87 4.43998Z" fill="#FEFEFE"/>
<path d="M8.25 5.19002C8.99 5.40002 9.37 5.13002 9.41 4.33002C9.62 4.68002 9.57 5.07002 9.8 5.19002C10.03 5.31002 10.33 5.19002 10.63 5.28002C10.479 5.40552 10.3185 5.51919 10.15 5.62002C10.1103 5.63789 10.0747 5.66393 10.0458 5.69645C10.0168 5.72897 9.99495 5.76723 9.98174 5.80875C9.96853 5.85027 9.96422 5.8941 9.96909 5.9374C9.97396 5.98069 9.9879 6.02247 10.01 6.06002C10.0818 6.22459 10.1387 6.39527 10.18 6.57002C10.18 6.63002 10.18 6.63002 10.18 6.57002C9.94 6.44002 9.75 6.11002 9.49 6.14002C9.23 6.17002 9.03 6.43002 8.75 6.63002C8.83 6.37002 8.88 6.17002 8.96 5.98002C8.97892 5.9468 8.99085 5.91006 8.99503 5.87206C8.99921 5.83406 8.99557 5.79561 8.98433 5.75907C8.97309 5.72253 8.95448 5.68868 8.92966 5.65961C8.90484 5.63053 8.87432 5.60685 8.84 5.59002C8.66375 5.47913 8.49351 5.35896 8.33 5.23002L8.25 5.19002Z" fill="#FEFEFE"/>
<path d="M4 4.44H4.06C4.16 5.09 4.49 5.44 5.2 5.18C5.20414 5.21989 5.20414 5.26011 5.2 5.3C4.58 5.59 4.43 6.02 4.82 6.67C4.3 6.08 3.82 6.07 3.38 6.67V6.56C3.71 5.97 3.6 5.56 2.87 5.28L2.96 5.22C3.133 5.20495 3.30699 5.20495 3.48 5.22C3.76 5.22 3.88 5.14 3.93 4.88C3.94239 4.7318 3.96579 4.58473 4 4.44Z" fill="#FEFEFE"/>
<path d="M11.41 4.32996C11.47 4.13996 11.52 3.94996 11.6 3.75996C11.6217 3.72256 11.6351 3.68089 11.6392 3.63783C11.6433 3.59477 11.6381 3.55133 11.6238 3.51048C11.6096 3.46964 11.5867 3.43236 11.5566 3.4012C11.5266 3.37004 11.4903 3.34574 11.45 3.32996C11.2614 3.21231 11.081 3.08201 10.91 2.93996C11.2 2.93996 11.4 2.93996 11.61 2.93996C11.647 2.95044 11.6859 2.95257 11.7238 2.94619C11.7618 2.93981 11.7979 2.92509 11.8294 2.90309C11.861 2.88108 11.8873 2.85235 11.9064 2.81895C11.9255 2.78555 11.937 2.74833 11.94 2.70996C11.9894 2.52006 12.0495 2.3331 12.12 2.14996C12.2 2.14996 12.2 2.19996 12.22 2.23996C12.46 2.91996 12.46 2.91996 13.22 2.93996H13.34C13.3455 2.96297 13.3455 2.98696 13.34 3.00996C13.14 3.19996 12.77 3.27996 12.72 3.53996C12.67 3.79996 12.86 4.03996 12.94 4.29996H12.88C12.8026 4.17275 12.6932 4.06809 12.5627 3.99644C12.4322 3.9248 12.2852 3.88869 12.1363 3.89172C11.9875 3.89476 11.842 3.93684 11.7146 4.01375C11.5871 4.09066 11.4821 4.1997 11.41 4.32996Z" fill="#FEFEFE"/>
<path d="M7.51 4.38001C7.43628 4.24682 7.32927 4.13503 7.19942 4.05556C7.06958 3.9761 6.92133 3.93167 6.76918 3.92664C6.61703 3.9216 6.46618 3.95612 6.33136 4.02682C6.19654 4.09752 6.08237 4.20199 6 4.33001C6.06 4.14001 6.11 3.95001 6.18 3.76001C6.20376 3.7237 6.21907 3.68251 6.2248 3.63949C6.23052 3.59647 6.22652 3.55272 6.21308 3.51145C6.19965 3.47019 6.17712 3.43246 6.14717 3.40106C6.11721 3.36966 6.08059 3.34538 6.04 3.33001C5.8514 3.21236 5.67098 3.08206 5.5 2.94001C5.79 2.94001 5.99 2.94001 6.19 2.94001C6.39 2.94001 6.48 2.94001 6.52 2.71001C6.56 2.48001 6.64 2.33001 6.71 2.14001C6.71 2.14001 6.77 2.14001 6.78 2.14001C6.91 2.38001 6.86 2.75001 7.1 2.87001C7.36089 2.92073 7.62911 2.92073 7.89 2.87001V2.95001C7.29 3.30001 7.12 3.72001 7.51 4.38001Z" fill="#FEFEFE"/>
<path d="M2.08 4.41996C1.6 3.77996 1.08 3.80996 0.619995 4.32996C0.672797 4.13989 0.73623 3.95293 0.809995 3.76996C0.83355 3.73221 0.848411 3.68969 0.853501 3.64548C0.858591 3.60127 0.853782 3.55648 0.839423 3.51436C0.825064 3.47224 0.801514 3.43385 0.770481 3.40195C0.739447 3.37006 0.701707 3.34547 0.659995 3.32996C0.499995 3.23996 0.359995 3.10996 0.119995 2.93996C0.409995 2.93996 0.619995 2.93996 0.819995 2.93996C1.02 2.93996 1.11 2.93996 1.15 2.70996C1.19 2.47996 1.27 2.32996 1.33 2.14996C1.42 2.14996 1.42 2.19996 1.43 2.23996C1.67 2.91996 1.67 2.91996 2.43 2.93996H2.56C2.56 2.93996 2.56 2.93996 2.56 2.99996C2.36 3.19996 2 3.27996 1.95 3.53996C1.9 3.79996 2.08 4.03996 2.16 4.29996L2.08 4.41996Z" fill="#FEFEFE"/>
<path d="M13.7 0.660007C13.98 0.660007 14.33 0.730007 14.52 0.600007C14.71 0.470007 14.73 0.110007 14.84 -0.179993C14.9273 -0.0704894 14.9827 0.0610172 15 0.200007C14.9981 0.277394 15.0152 0.354067 15.0501 0.423212C15.0849 0.492358 15.1362 0.551836 15.1995 0.596361C15.2629 0.640887 15.3362 0.669081 15.413 0.67844C15.4899 0.687799 15.5679 0.678032 15.64 0.650007C15.7631 0.640027 15.8869 0.640027 16.01 0.650007V0.710007C15.42 1.01001 15.18 1.42001 15.65 2.03001C15.56 2.03001 15.54 2.03001 15.52 2.03001C15.28 1.90001 15.09 1.58001 14.83 1.61001C14.57 1.64001 14.38 1.90001 14.15 2.06001V2.01001C14.44 1.43001 14.42 0.950007 13.64 0.720007L13.7 0.660007Z" fill="#FEFEFF"/>
<path d="M8.71002 2.00001C8.78002 1.80001 8.83002 1.60001 8.91002 1.41001C8.99002 1.22001 8.96002 1.12001 8.78002 1.02001C8.60002 0.920007 8.46002 0.830007 8.21002 0.650007C8.50002 0.650007 8.70002 0.650007 8.90002 0.650007C8.93972 0.660381 8.98122 0.661901 9.02158 0.65446C9.06193 0.647018 9.10016 0.630798 9.13355 0.606947C9.16694 0.583096 9.19468 0.552196 9.21481 0.516436C9.23494 0.480675 9.24696 0.440928 9.25002 0.400007C9.25002 0.220007 9.36002 0.0400073 9.43002 -0.179993C9.55252 -0.0156148 9.63162 0.176981 9.66002 0.380007C9.71002 0.580007 9.80002 0.680007 10.02 0.650007C10.24 0.620007 10.42 0.650007 10.7 0.650007C10.5258 0.792456 10.3421 0.922763 10.15 1.04001C10.11 1.05755 10.0743 1.08362 10.0454 1.1164C10.0165 1.14918 9.9951 1.18787 9.98272 1.22978C9.97034 1.27169 9.96726 1.3158 9.9737 1.35902C9.98015 1.40224 9.99596 1.44353 10.02 1.48001C10.09 1.65001 10.14 1.84001 10.2 2.02001C10.2 2.02001 10.14 2.02001 10.13 2.02001C10.0529 1.89932 9.94442 1.80187 9.81618 1.73808C9.68795 1.67429 9.54479 1.64656 9.40201 1.65786C9.25923 1.66916 9.12221 1.71906 9.00561 1.80223C8.889 1.88539 8.7972 1.99869 8.74002 2.13001L8.71002 2.00001Z" fill="#FEFEFF"/>
<path d="M2.88 0.690007H2.94C3.21 0.690007 3.56 0.800007 3.75 0.630007C3.94 0.460007 3.94 0.110007 4 -0.179993C4.11753 0.0111845 4.20205 0.220778 4.25 0.440007C4.25361 0.472607 4.26386 0.504121 4.28012 0.532604C4.29638 0.561088 4.31831 0.585936 4.34455 0.605615C4.37079 0.625294 4.40078 0.639386 4.43268 0.647021C4.46458 0.654656 4.4977 0.655673 4.53 0.650007C4.74 0.650007 4.96 0.650007 5.26 0.650007C5.12621 0.77393 4.98602 0.890757 4.84 1.00001C4.56 1.14001 4.53 1.32001 4.66 1.59001C4.71708 1.7229 4.76388 1.85996 4.8 2.00001H4.74C4.27 1.52001 3.81 1.47001 3.35 2.11001V2.01001C3.41 1.81001 3.47 1.61001 3.55 1.41001C3.56846 1.37693 3.57976 1.34034 3.58315 1.30262C3.58654 1.26489 3.58196 1.22687 3.5697 1.19103C3.55744 1.15519 3.53778 1.12234 3.51198 1.09459C3.48619 1.06685 3.45486 1.04485 3.42 1.03001C3.22 1.00001 3.06 0.820007 2.88 0.690007Z" fill="#FEFEFF"/>
</g>
</svg>
